<?xml version="1.0" encoding="UTF-8" standalone="no"?>
<svg
   xmlns:dc="http://purl.org/dc/elements/1.1/"
   xmlns:cc="http://creativecommons.org/ns#"
   xmlns:rdf="http://www.w3.org/1999/02/22-rdf-syntax-ns#"
   xmlns:svg="http://www.w3.org/2000/svg"
   xmlns="http://www.w3.org/2000/svg"
   xmlns:sodipodi="http://sodipodi.sourceforge.net/DTD/sodipodi-0.dtd"
   xmlns:inkscape="http://www.inkscape.org/namespaces/inkscape"
   version="1.1"
   width="297mm"
   height="210mm"
   viewBox="0 0 116929.13 82677.223"
   id="svg1618"
   sodipodi:docname="Treadstone48_plate-brd.svg"
   inkscape:version="0.92.3 (2405546, 2018-03-11)">
  <metadata
     id="metadata1624">
    <rdf:RDF>
      <cc:Work
         rdf:about="">
        <dc:format>image/svg+xml</dc:format>
        <dc:type
           rdf:resource="http://purl.org/dc/dcmitype/StillImage" />
        <dc:title>SVG Picture created as Treadstone48_plate-brd.svg date 2019/02/04 19:49:18 </dc:title>
      </cc:Work>
    </rdf:RDF>
  </metadata>
  <defs
     id="defs1622" />
  <sodipodi:namedview
     pagecolor="#ffffff"
     bordercolor="#666666"
     borderopacity="1"
     objecttolerance="10"
     gridtolerance="10"
     guidetolerance="10"
     inkscape:pageopacity="0"
     inkscape:pageshadow="2"
     inkscape:window-width="1920"
     inkscape:window-height="1017"
     id="namedview1620"
     showgrid="false"
     units="mm"
     inkscape:snap-object-midpoints="true"
     inkscape:zoom="0.84095957"
     inkscape:cx="681.45386"
     inkscape:cy="743.29272"
     inkscape:window-x="-8"
     inkscape:window-y="-8"
     inkscape:window-maximized="1"
     inkscape:current-layer="svg1618"
     inkscape:measure-start="807.62,499.875"
     inkscape:measure-end="742.666,475.281" />
  <title
     id="title2">SVG Picture created as Treadstone48_plate-brd.svg date 2019/02/04 19:49:18 </title>
  <desc
     id="desc4">Picture generated by PCBNEW </desc>
  <g
     style="fill:none;fill-opacity:0;stroke:#ff0000;stroke-linecap:round;stroke-linejoin:round;stroke-opacity:1"
     id="g6"
     transform="translate(0,-34252.763)" />
  <g
     style="fill:none;fill-opacity:0;stroke:#ff0000;stroke-width:-0.0003937;stroke-linecap:round;stroke-linejoin:round;stroke-opacity:1"
     id="g8"
     transform="translate(0,-34252.763)" />
  <g
     style="fill:none;fill-opacity:0;stroke:#ff0000;stroke-width:39.37009811;stroke-linecap:round;stroke-linejoin:round;stroke-opacity:1"
     id="g10"
     transform="translate(0,-34252.763)" />
  <g
     style="fill:none;fill-opacity:0;stroke:#ff0000;stroke-width:39.37009811;stroke-linecap:round;stroke-linejoin:round;stroke-opacity:1"
     id="g16"
     transform="translate(0,-34252.763)" />
  <g
     style="fill:none;fill-opacity:0;stroke:#ff0000;stroke-width:39.37009811;stroke-linecap:round;stroke-linejoin:round;stroke-opacity:1"
     id="g22"
     transform="translate(0,-34252.763)" />
  <g
     style="fill:none;fill-opacity:0;stroke:#ff0000;stroke-width:39.37009811;stroke-linecap:round;stroke-linejoin:round;stroke-opacity:1"
     id="g28"
     transform="translate(0,-34252.763)" />
  <g
     style="fill:none;fill-opacity:0;stroke:#ff0000;stroke-width:39.37009811;stroke-linecap:round;stroke-linejoin:round;stroke-opacity:1"
     id="g34"
     transform="translate(0,-34252.763)" />
  <g
     style="fill:none;fill-opacity:0;stroke:#ff0000;stroke-width:39.37009811;stroke-linecap:round;stroke-linejoin:round;stroke-opacity:1"
     id="g40"
     transform="translate(0,-34252.763)" />
  <g
     style="fill:none;fill-opacity:0;stroke:#ff0000;stroke-width:39.37009811;stroke-linecap:round;stroke-linejoin:round;stroke-opacity:1"
     id="g46"
     transform="translate(0,-34252.763)" />
  <g
     style="fill:none;fill-opacity:0;stroke:#ff0000;stroke-width:39.37009811;stroke-linecap:round;stroke-linejoin:round;stroke-opacity:1"
     id="g52"
     transform="translate(0,-34252.763)" />
  <g
     style="fill:none;fill-opacity:0;stroke:#ff0000;stroke-width:39.37009811;stroke-linecap:round;stroke-linejoin:round;stroke-opacity:1"
     id="g58"
     transform="translate(0,-34252.763)" />
  <g
     style="fill:none;fill-opacity:0;stroke:#ff0000;stroke-width:39.37009811;stroke-linecap:round;stroke-linejoin:round;stroke-opacity:1"
     id="g64"
     transform="translate(0,-34252.763)" />
  <g
     style="fill:none;fill-opacity:0;stroke:#ff0000;stroke-width:39.37009811;stroke-linecap:round;stroke-linejoin:round;stroke-opacity:1"
     id="g70"
     transform="translate(0,-34252.763)" />
  <g
     style="fill:none;fill-opacity:0;stroke:#ff0000;stroke-width:39.37009811;stroke-linecap:round;stroke-linejoin:round;stroke-opacity:1"
     id="g78"
     transform="translate(0,-34252.763)" />
  <g
     style="fill:none;fill-opacity:0;stroke:#ff0000;stroke-width:39.37009811;stroke-linecap:round;stroke-linejoin:round;stroke-opacity:1"
     id="g84"
     transform="translate(0,-34252.763)" />
  <g
     style="fill:none;fill-opacity:0;stroke:#ff0000;stroke-width:39.37009811;stroke-linecap:round;stroke-linejoin:round;stroke-opacity:1"
     id="g90"
     transform="translate(0,-34252.763)" />
  <g
     style="fill:none;fill-opacity:0;stroke:#ff0000;stroke-width:39.37009811;stroke-linecap:round;stroke-linejoin:round;stroke-opacity:1"
     id="g98"
     transform="translate(0,-34252.763)" />
  <g
     style="fill:none;fill-opacity:0;stroke:#ff0000;stroke-width:39.37009811;stroke-linecap:round;stroke-linejoin:round;stroke-opacity:1"
     id="g104"
     transform="translate(0,-34252.763)" />
  <g
     style="fill:none;fill-opacity:0;stroke:#ff0000;stroke-width:39.37009811;stroke-linecap:round;stroke-linejoin:round;stroke-opacity:1"
     id="g110"
     transform="translate(0,-34252.763)" />
  <g
     style="fill:none;fill-opacity:0;stroke:#ff0000;stroke-width:39.37009811;stroke-linecap:round;stroke-linejoin:round;stroke-opacity:1"
     id="g116"
     transform="translate(0,-34252.763)" />
  <g
     style="fill:none;fill-opacity:0;stroke:#ff0000;stroke-width:39.37009811;stroke-linecap:round;stroke-linejoin:round;stroke-opacity:1"
     id="g122"
     transform="translate(0,-34252.763)" />
  <g
     style="fill:none;fill-opacity:0;stroke:#ff0000;stroke-width:39.37009811;stroke-linecap:round;stroke-linejoin:round;stroke-opacity:1"
     id="g128"
     transform="translate(0,-34252.763)" />
  <g
     style="fill:none;fill-opacity:0;stroke:#ff0000;stroke-width:39.37009811;stroke-linecap:round;stroke-linejoin:round;stroke-opacity:1"
     id="g134"
     transform="translate(0,-34252.763)" />
  <g
     style="fill:none;fill-opacity:0;stroke:#ff0000;stroke-width:39.37009811;stroke-linecap:round;stroke-linejoin:round;stroke-opacity:1"
     id="g140"
     transform="translate(0,-34252.763)" />
  <g
     style="fill:none;fill-opacity:0;stroke:#ff0000;stroke-width:39.37009811;stroke-linecap:round;stroke-linejoin:round;stroke-opacity:1"
     id="g146"
     transform="translate(0,-34252.763)" />
  <g
     style="fill:none;fill-opacity:0;stroke:#ff0000;stroke-width:39.37009811;stroke-linecap:round;stroke-linejoin:round;stroke-opacity:1"
     id="g152"
     transform="translate(0,-34252.763)" />
  <g
     style="fill:none;fill-opacity:0;stroke:#ff0000;stroke-width:39.37009811;stroke-linecap:round;stroke-linejoin:round;stroke-opacity:1"
     id="g158"
     transform="translate(0,-34252.763)" />
  <g
     style="fill:none;fill-opacity:0;stroke:#ff0000;stroke-width:39.37009811;stroke-linecap:round;stroke-linejoin:round;stroke-opacity:1"
     id="g164"
     transform="translate(0,-34252.763)" />
  <g
     style="fill:none;fill-opacity:0;stroke:#ff0000;stroke-width:39.37009811;stroke-linecap:round;stroke-linejoin:round;stroke-opacity:1"
     id="g172"
     transform="translate(0,-34252.763)" />
  <g
     style="fill:none;fill-opacity:0;stroke:#ff0000;stroke-width:39.37009811;stroke-linecap:round;stroke-linejoin:round;stroke-opacity:1"
     id="g178"
     transform="translate(0,-34252.763)" />
  <g
     style="fill:none;fill-opacity:0;stroke:#ff0000;stroke-width:39.37009811;stroke-linecap:round;stroke-linejoin:round;stroke-opacity:1"
     id="g184"
     transform="translate(0,-34252.763)" />
  <g
     style="fill:none;fill-opacity:0;stroke:#ff0000;stroke-width:39.37009811;stroke-linecap:round;stroke-linejoin:round;stroke-opacity:1"
     id="g192"
     transform="translate(0,-34252.763)" />
  <g
     style="fill:none;fill-opacity:0;stroke:#ff0000;stroke-width:39.37009811;stroke-linecap:round;stroke-linejoin:round;stroke-opacity:1"
     id="g198"
     transform="translate(0,-34252.763)" />
  <g
     style="fill:none;fill-opacity:0;stroke:#ff0000;stroke-width:39.37009811;stroke-linecap:round;stroke-linejoin:round;stroke-opacity:1"
     id="g204"
     transform="translate(0,-34252.763)" />
  <g
     style="fill:none;fill-opacity:0;stroke:#ff0000;stroke-width:39.37009811;stroke-linecap:round;stroke-linejoin:round;stroke-opacity:1"
     id="g210"
     transform="translate(0,-34252.763)" />
  <g
     style="fill:none;fill-opacity:0;stroke:#ff0000;stroke-width:39.37009811;stroke-linecap:round;stroke-linejoin:round;stroke-opacity:1"
     id="g216"
     transform="translate(0,-34252.763)" />
  <g
     style="fill:none;fill-opacity:0;stroke:#ff0000;stroke-width:39.37009811;stroke-linecap:round;stroke-linejoin:round;stroke-opacity:1"
     id="g222"
     transform="translate(0,-34252.763)" />
  <g
     style="fill:none;fill-opacity:0;stroke:#ff0000;stroke-width:39.37009811;stroke-linecap:round;stroke-linejoin:round;stroke-opacity:1"
     id="g228"
     transform="translate(0,-34252.763)" />
  <g
     style="fill:none;fill-opacity:0;stroke:#ff0000;stroke-width:39.37009811;stroke-linecap:round;stroke-linejoin:round;stroke-opacity:1"
     id="g234"
     transform="translate(0,-34252.763)" />
  <g
     style="fill:none;fill-opacity:0;stroke:#ff0000;stroke-width:39.37009811;stroke-linecap:round;stroke-linejoin:round;stroke-opacity:1"
     id="g240"
     transform="translate(0,-34252.763)" />
  <g
     style="fill:none;fill-opacity:0;stroke:#ff0000;stroke-width:39.37009811;stroke-linecap:round;stroke-linejoin:round;stroke-opacity:1"
     id="g246"
     transform="translate(0,-34252.763)" />
  <g
     style="fill:none;fill-opacity:0;stroke:#ff0000;stroke-width:39.37009811;stroke-linecap:round;stroke-linejoin:round;stroke-opacity:1"
     id="g254"
     transform="translate(0,-34252.763)" />
  <g
     style="fill:none;fill-opacity:0;stroke:#ff0000;stroke-width:39.37009811;stroke-linecap:round;stroke-linejoin:round;stroke-opacity:1"
     id="g260"
     transform="translate(0,-34252.763)" />
  <g
     style="fill:none;fill-opacity:0;stroke:#ff0000;stroke-width:39.37009811;stroke-linecap:round;stroke-linejoin:round;stroke-opacity:1"
     id="g266"
     transform="translate(0,-34252.763)" />
  <g
     style="fill:none;fill-opacity:0;stroke:#ff0000;stroke-width:39.37009811;stroke-linecap:round;stroke-linejoin:round;stroke-opacity:1"
     id="g272"
     transform="translate(0,-34252.763)" />
  <g
     style="fill:none;fill-opacity:0;stroke:#ff0000;stroke-width:39.37009811;stroke-linecap:round;stroke-linejoin:round;stroke-opacity:1"
     id="g280"
     transform="translate(0,-34252.763)" />
  <g
     style="fill:none;fill-opacity:0;stroke:#ff0000;stroke-width:39.37009811;stroke-linecap:round;stroke-linejoin:round;stroke-opacity:1"
     id="g288"
     transform="translate(0,-34252.763)" />
  <g
     style="fill:none;fill-opacity:0;stroke:#ff0000;stroke-width:39.37009811;stroke-linecap:round;stroke-linejoin:round;stroke-opacity:1"
     id="g294"
     transform="translate(0,-34252.763)" />
  <g
     style="fill:none;fill-opacity:0;stroke:#ff0000;stroke-width:39.37009811;stroke-linecap:round;stroke-linejoin:round;stroke-opacity:1"
     id="g300"
     transform="translate(0,-34252.763)" />
  <g
     style="fill:none;fill-opacity:0;stroke:#ff0000;stroke-width:39.37009811;stroke-linecap:round;stroke-linejoin:round;stroke-opacity:1"
     id="g306"
     transform="translate(0,-34252.763)" />
  <g
     style="fill:none;fill-opacity:0;stroke:#ff0000;stroke-width:39.37009811;stroke-linecap:round;stroke-linejoin:round;stroke-opacity:1"
     id="g312"
     transform="translate(0,-34252.763)" />
  <g
     style="fill:none;fill-opacity:0;stroke:#ff0000;stroke-width:39.37009811;stroke-linecap:round;stroke-linejoin:round;stroke-opacity:1"
     id="g318"
     transform="translate(0,-34252.763)" />
  <g
     style="fill:none;fill-opacity:0;stroke:#ff0000;stroke-width:39.37009811;stroke-linecap:round;stroke-linejoin:round;stroke-opacity:1"
     id="g326"
     transform="translate(0,-34252.763)" />
  <g
     style="fill:none;fill-opacity:0;stroke:#ff0000;stroke-width:39.37009811;stroke-linecap:round;stroke-linejoin:round;stroke-opacity:1"
     id="g332"
     transform="translate(0,-34252.763)" />
  <g
     style="fill:none;fill-opacity:0;stroke:#ff0000;stroke-width:39.37009811;stroke-linecap:round;stroke-linejoin:round;stroke-opacity:1"
     id="g338"
     transform="translate(0,-34252.763)" />
  <g
     style="fill:none;fill-opacity:0;stroke:#ff0000;stroke-width:39.37009811;stroke-linecap:round;stroke-linejoin:round;stroke-opacity:1"
     id="g344"
     transform="translate(0,-34252.763)" />
  <g
     style="fill:none;fill-opacity:0;stroke:#ff0000;stroke-width:39.37009811;stroke-linecap:round;stroke-linejoin:round;stroke-opacity:1"
     id="g352"
     transform="translate(0,-34252.763)" />
  <g
     style="fill:none;fill-opacity:0;stroke:#ff0000;stroke-width:39.37009811;stroke-linecap:round;stroke-linejoin:round;stroke-opacity:1"
     id="g360"
     transform="translate(0,-34252.763)" />
  <g
     style="fill:none;fill-opacity:0;stroke:#ff0000;stroke-width:39.37009811;stroke-linecap:round;stroke-linejoin:round;stroke-opacity:1"
     id="g404"
     transform="translate(0,-34252.763)" />
  <g
     style="fill:none;fill-opacity:0;stroke:#ff0000;stroke-width:39.37009811;stroke-linecap:round;stroke-linejoin:round;stroke-opacity:1"
     id="g410"
     transform="translate(0,-34252.763)" />
  <g
     style="fill:none;fill-opacity:0;stroke:#ff0000;stroke-width:39.37009811;stroke-linecap:round;stroke-linejoin:round;stroke-opacity:1"
     id="g482"
     transform="translate(0,-34252.763)" />
  <g
     style="fill:none;fill-opacity:0;stroke:#ff0000;stroke-width:39.37009811;stroke-linecap:round;stroke-linejoin:round;stroke-opacity:1"
     id="g488"
     transform="translate(0,-34252.763)" />
  <g
     style="fill:none;fill-opacity:0;stroke:#ff0000;stroke-width:39.37009811;stroke-linecap:round;stroke-linejoin:round;stroke-opacity:1"
     id="g518"
     transform="translate(0,-34252.763)" />
  <g
     style="fill:none;fill-opacity:0;stroke:#ff0000;stroke-width:39.37009811;stroke-linecap:round;stroke-linejoin:round;stroke-opacity:1"
     id="g542"
     transform="translate(0,-34252.763)" />
  <g
     style="fill:none;fill-opacity:0;stroke:#ff0000;stroke-width:39.37009811;stroke-linecap:round;stroke-linejoin:round;stroke-opacity:1"
     id="g566"
     transform="translate(0,-34252.763)" />
  <g
     style="fill:none;fill-opacity:0;stroke:#ff0000;stroke-width:39.37009811;stroke-linecap:round;stroke-linejoin:round;stroke-opacity:1"
     id="g572"
     transform="translate(0,-34252.763)" />
  <g
     style="fill:none;fill-opacity:0;stroke:#ff0000;stroke-width:39.37009811;stroke-linecap:round;stroke-linejoin:round;stroke-opacity:1"
     id="g652"
     transform="translate(0,-34252.763)" />
  <g
     style="fill:none;fill-opacity:0;stroke:#ff0000;stroke-width:39.37009811;stroke-linecap:round;stroke-linejoin:round;stroke-opacity:1"
     id="g762"
     transform="translate(0,-34252.763)" />
  <g
     style="fill:none;fill-opacity:0;stroke:#ff0000;stroke-width:39.37009811;stroke-linecap:round;stroke-linejoin:round;stroke-opacity:1"
     id="g768"
     transform="translate(0,-34252.763)" />
  <g
     style="fill:none;fill-opacity:0;stroke:#ff0000;stroke-width:39.37009811;stroke-linecap:round;stroke-linejoin:round;stroke-opacity:1"
     id="g790"
     transform="translate(0,-34252.763)" />
  <g
     style="fill:none;fill-opacity:0;stroke:#ff0000;stroke-width:39.37009811;stroke-linecap:round;stroke-linejoin:round;stroke-opacity:1"
     id="g828"
     transform="translate(0,-34252.763)" />
  <g
     style="fill:none;fill-opacity:0;stroke:#ff0000;stroke-width:39.37009811;stroke-linecap:round;stroke-linejoin:round;stroke-opacity:1"
     id="g834"
     transform="translate(0,-34252.763)" />
  <g
     style="fill:none;fill-opacity:0;stroke:#ff0000;stroke-width:39.37009811;stroke-linecap:round;stroke-linejoin:round;stroke-opacity:1"
     id="g844"
     transform="translate(0,-34252.763)" />
  <g
     style="fill:none;fill-opacity:0;stroke:#ff0000;stroke-width:39.37009811;stroke-linecap:round;stroke-linejoin:round;stroke-opacity:1"
     id="g850"
     transform="translate(0,-34252.763)" />
  <g
     style="fill:none;fill-opacity:0;stroke:#ff0000;stroke-width:39.37009811;stroke-linecap:round;stroke-linejoin:round;stroke-opacity:1"
     id="g856"
     transform="translate(0,-34252.763)" />
  <g
     style="fill:none;fill-opacity:0;stroke:#ff0000;stroke-width:39.37009811;stroke-linecap:round;stroke-linejoin:round;stroke-opacity:1"
     id="g862"
     transform="translate(0,-34252.763)" />
  <g
     style="fill:none;fill-opacity:0;stroke:#ff0000;stroke-width:39.37009811;stroke-linecap:round;stroke-linejoin:round;stroke-opacity:1"
     id="g868"
     transform="translate(0,-34252.763)" />
  <g
     style="fill:none;fill-opacity:0;stroke:#ff0000;stroke-width:39.37009811;stroke-linecap:round;stroke-linejoin:round;stroke-opacity:1"
     id="g874"
     transform="translate(0,-34252.763)" />
  <g
     style="fill:none;fill-opacity:0;stroke:#ff0000;stroke-width:39.37009811;stroke-linecap:round;stroke-linejoin:round;stroke-opacity:1"
     id="g880"
     transform="translate(0,-34252.763)" />
  <g
     style="fill:none;fill-opacity:0;stroke:#ff0000;stroke-width:39.37009811;stroke-linecap:round;stroke-linejoin:round;stroke-opacity:1"
     id="g886"
     transform="translate(0,-34252.763)" />
  <g
     style="fill:none;fill-opacity:0;stroke:#ff0000;stroke-width:39.37009811;stroke-linecap:round;stroke-linejoin:round;stroke-opacity:1"
     id="g892"
     transform="translate(0,-34252.763)" />
  <g
     style="fill:none;fill-opacity:0;stroke:#ff0000;stroke-width:39.37009811;stroke-linecap:round;stroke-linejoin:round;stroke-opacity:1"
     id="g898"
     transform="translate(0,-34252.763)" />
  <g
     style="fill:none;fill-opacity:0;stroke:#ff0000;stroke-width:39.37009811;stroke-linecap:round;stroke-linejoin:round;stroke-opacity:1"
     id="g904"
     transform="translate(0,-34252.763)" />
  <g
     style="fill:none;fill-opacity:0;stroke:#ff0000;stroke-width:39.37009811;stroke-linecap:round;stroke-linejoin:round;stroke-opacity:1"
     id="g910"
     transform="translate(0,-34252.763)" />
  <g
     style="fill:none;fill-opacity:0;stroke:#ff0000;stroke-width:39.37009811;stroke-linecap:round;stroke-linejoin:round;stroke-opacity:1"
     id="g916"
     transform="translate(0,-34252.763)" />
  <g
     style="fill:none;fill-opacity:0;stroke:#ff0000;stroke-width:39.37009811;stroke-linecap:round;stroke-linejoin:round;stroke-opacity:1"
     id="g922"
     transform="translate(0,-34252.763)" />
  <g
     style="fill:none;fill-opacity:0;stroke:#ff0000;stroke-width:39.37009811;stroke-linecap:round;stroke-linejoin:round;stroke-opacity:1"
     id="g928"
     transform="translate(0,-34252.763)" />
  <g
     style="fill:none;fill-opacity:0;stroke:#ff0000;stroke-width:39.37009811;stroke-linecap:round;stroke-linejoin:round;stroke-opacity:1"
     id="g934"
     transform="translate(0,-34252.763)" />
  <g
     style="fill:none;fill-opacity:0;stroke:#ff0000;stroke-width:59.05509949;stroke-linecap:round;stroke-linejoin:round;stroke-opacity:1"
     id="g936"
     transform="translate(0,-34252.763)" />
  <g
     id="g4619">
    <path
       sodipodi:nodetypes="csccsccsccccsccscc"
       d="m 10299.216,3730.006 c -132.258,0.2 -259.435,52.8784 -353.2034,146.6466 -93.7682,93.7682 -146.4466,220.9452 -146.7966,353.3534 v 14000 c 0.35,132.808 -52.3284,259.985 -146.0966,353.753 -93.7682,93.769 -220.9452,146.447 -353.9034,146.247 l -6500,0.2 c -132.2582,0.4 -259.4352,53.078 -353.2034,146.847 -93.7682,93.768 -146.4466,220.945 -146.7966,353.153 l -0.35,6999.6 6563,7501 103564.504,-0.6 c 133.11,0.4 260.29,-52.278 354.05,-146.047 93.77,-93.768 146.45,-220.945 145.95,-353.953 v -29000 c 0.5,-132.2082 -52.18,-259.3852 -145.95,-353.1534 -93.76,-93.7682 -220.94,-146.4466 -287.75,-146.8466 z"
       id="path986"
       inkscape:connector-curvature="0"
       style="fill:none;fill-opacity:0;stroke:#ff0000;stroke-width:59.05509949;stroke-linecap:round;stroke-linejoin:round;stroke-opacity:1" />
    <path
       d="m 91417.866,19723.806 h 5512 m 0,0 v 5512 m 0,0 h -5512 m 0,0 v -5512"
       style="fill:none;fill-opacity:0;stroke:#ff0000;stroke-width:59.05509949;stroke-linecap:round;stroke-linejoin:round;stroke-opacity:1"
       id="path1098" />
    <path
       d="m 25679.866,25235.806 h -5512 m 0,0 v -5512 m 0,0 h 5512 m 0,0 v 5512"
       style="fill:none;fill-opacity:0;stroke:#ff0000;stroke-width:59.05509949;stroke-linecap:round;stroke-linejoin:round;stroke-opacity:1"
       id="path1118" />
    <path
       d="m 68917.866,19723.806 h 5512 m -5512,5512 v -5512 m 5512,5512 h -5512 m 5512,-5512 v 5512"
       style="fill:none;fill-opacity:0;stroke:#ff0000;stroke-width:59.05509949;stroke-linecap:round;stroke-linejoin:round;stroke-opacity:1"
       id="path1126" />
    <path
       d="m 89429.866,19723.806 v 5512 m 0,0 h -5512 m 0,0 v -5512 m 0,0 h 5512"
       style="fill:none;fill-opacity:0;stroke:#ff0000;stroke-width:59.05509949;stroke-linecap:round;stroke-linejoin:round;stroke-opacity:1"
       id="path1134" />
    <path
       d="m 55679.866,25235.806 h -5512 m 5512,-5512 v 5512 m -5512,0 v -5512 m 0,0 h 5512"
       style="fill:none;fill-opacity:0;stroke:#ff0000;stroke-width:59.05509949;stroke-linecap:round;stroke-linejoin:round;stroke-opacity:1"
       id="path1154" />
    <path
       d="m 48179.866,25235.806 h -5512 m 0,-5512 h 5512 m 0,0 v 5512 m -5512,0 v -5512"
       style="fill:none;fill-opacity:0;stroke:#ff0000;stroke-width:59.05509949;stroke-linecap:round;stroke-linejoin:round;stroke-opacity:1"
       id="path1156" />
    <path
       d="m 35167.866,19723.806 h 5512 m 0,5512 h -5512 m 0,0 v -5512 m 5512,0 v 5512"
       style="fill:none;fill-opacity:0;stroke:#ff0000;stroke-width:59.05509949;stroke-linecap:round;stroke-linejoin:round;stroke-opacity:1"
       id="path1158" />
    <path
       d="m 33179.866,25235.806 h -5512 m 5512,-5512 v 5512 m -5512,0 v -5512 m 0,0 h 5512"
       style="fill:none;fill-opacity:0;stroke:#ff0000;stroke-width:59.05509949;stroke-linecap:round;stroke-linejoin:round;stroke-opacity:1"
       id="path1162" />
    <path
       d="m 81929.866,25235.806 h -5512 m 0,-5512 h 5512 m 0,0 v 5512 m -5512,0 v -5512"
       style="fill:none;fill-opacity:0;stroke:#ff0000;stroke-width:59.05509949;stroke-linecap:round;stroke-linejoin:round;stroke-opacity:1"
       id="path1164" />
    <path
       d="m 66929.866,19723.806 v 5512 m -5512,-5512 h 5512 m -5512,5512 v -5512 m 5512,5512 h -5512"
       style="fill:none;fill-opacity:0;stroke:#ff0000;stroke-width:59.05509949;stroke-linecap:round;stroke-linejoin:round;stroke-opacity:1"
       id="path1166" />
    <path
       d="m 104429.87,19723.806 v 5512 m -5512.004,-5512 h 5512.004 m -5512.004,5512 v -5512 m 5512.004,5512 h -5512.004"
       style="fill:none;fill-opacity:0;stroke:#ff0000;stroke-width:59.05509949;stroke-linecap:round;stroke-linejoin:round;stroke-opacity:1"
       id="path1172" />
    <path
       d="m 98917.866,27223.806 h 5512.004 m 0,0 v 5512 m -5512.004,0 v -5512 m 5512.004,5512 h -5512.004"
       style="fill:none;fill-opacity:0;stroke:#ff0000;stroke-width:59.05509949;stroke-linecap:round;stroke-linejoin:round;stroke-opacity:1"
       id="path1196" />
    <path
       d="m 106417.87,32735.806 v -5512 m 5512,5512 h -5512 m 5512,-5512 v 5512 m -5512,-5512 h 5512"
       style="fill:none;fill-opacity:0;stroke:#ff0000;stroke-width:59.05509949;stroke-linecap:round;stroke-linejoin:round;stroke-opacity:1"
       id="path1198" />
    <path
       d="m 96929.866,27223.806 v 5512 m 0,0 h -5512 m 0,-5512 h 5512 m -5512,5512 v -5512"
       style="fill:none;fill-opacity:0;stroke:#ff0000;stroke-width:59.05509949;stroke-linecap:round;stroke-linejoin:round;stroke-opacity:1"
       id="path1224" />
    <path
       d="m 7379.866,20302.806 h -2657 m 0,1272 h -325 m 0,0 v 1102 m 0,0 h 325 m 0,2468 h 679 m 0,0 v 473 m 0,0 h 1299 m -1978,-2941 v 2468 m 1978,473 v -473 m 0,0 h 679 m 601,-5421 v 1851 m 0,0 h -601 m 0,0 v -1272 m -2657,0 v 1272 m 12352,1102 v -1102 m -2982,0 h -601 m 3258,1102 h 325 m -3583,-1102 v -1851 m 3258,579 h -2657 m 679,5315 h 1299 m -1978,-2232 v 1759 m 0,0 h 679 m -1280,-5421 h -5511 m 8769,5421 v -2468 m -3258,709 h 601 m -6713,0 h 601 m 0,1850 h 5511 m -6112,-91 v -1759 m 7392,1759 v 473 m 2303,-4043 h -325 m -2657,-1272 v 1272 m -6112,1811 v 1850 m 8090,382 v -473 m -2579,91 v -1850 m 3258,-1811 v -1272 m -679,4842 h 679"
       style="fill:none;fill-opacity:0;stroke:#ff0000;stroke-width:59.05509949;stroke-linecap:round;stroke-linejoin:round;stroke-opacity:1"
       id="path1226" />
    <path
       d="m 89429.866,27262.632 v 5434.233 m 0,-0.4 c -2149.667,0 -4299.333,0 -6449,0 m 0,0.4 v -5434.233 m 0,0.366 c 2149.667,0 4299.333,0 6449,0"
       style="fill:none;fill-opacity:0;stroke:#ff0000;stroke-width:59.05509949;stroke-linecap:round;stroke-linejoin:round;stroke-opacity:1"
       id="path1300" />
    <path
       d="m 37042.866,27223.806 h 5512 m -5512,5512 v -5512 m 5512,0 v 5512 m 0,0 h -5512"
       style="fill:none;fill-opacity:0;stroke:#ff0000;stroke-width:59.05509949;stroke-linecap:round;stroke-linejoin:round;stroke-opacity:1"
       id="path1336" />
    <path
       d="m 9855.866,32735.806 v -5512 m 5511,5512 h -5511 m 5511,-5512 v 5512 m -5511,-5512 h 5511"
       style="fill:none;fill-opacity:0;stroke:#ff0000;stroke-width:59.05509949;stroke-linecap:round;stroke-linejoin:round;stroke-opacity:1"
       id="path1338" />
    <path
       d="m 34116.866,27223.806 v 5512 m -5511,-5512 h 5511 m 0,5512 h -5511 m 0,0 v -5512"
       style="fill:none;fill-opacity:0;stroke:#ff0000;stroke-width:59.05509949;stroke-linecap:round;stroke-linejoin:round;stroke-opacity:1"
       id="path1344" />
    <path
       d="m 19230.866,32735.806 v -5512 m 5511,0 v 5512 m -5511,-5512 h 5511 m 0,5512 h -5511"
       style="fill:none;fill-opacity:0;stroke:#ff0000;stroke-width:59.05509949;stroke-linecap:round;stroke-linejoin:round;stroke-opacity:1"
       id="path1346" />
    <path
       d="m 96929.866,10235.806 h -5512 m 5512,-5512 v 5512 m -5512,-5512 h 5512 m -5512,5512 v -5512"
       style="fill:none;fill-opacity:0;stroke:#ff0000;stroke-width:59.05509949;stroke-linecap:round;stroke-linejoin:round;stroke-opacity:1"
       id="path1364" />
    <path
       d="m 61417.866,4723.806 h 5512 m 0,0 v 5512 m 0,0 h -5512 m 0,0 v -5512"
       style="fill:none;fill-opacity:0;stroke:#ff0000;stroke-width:59.05509949;stroke-linecap:round;stroke-linejoin:round;stroke-opacity:1"
       id="path1388" />
    <path
       d="m 83917.866,4723.806 h 5512 m 0,0 v 5512 m 0,0 h -5512 m 0,0 v -5512"
       style="fill:none;fill-opacity:0;stroke:#ff0000;stroke-width:59.05509949;stroke-linecap:round;stroke-linejoin:round;stroke-opacity:1"
       id="path1408" />
    <path
       d="m 76417.866,4723.806 h 5512 m 0,0 v 5512 m 0,0 h -5512 m 0,0 v -5512"
       style="fill:none;fill-opacity:0;stroke:#ff0000;stroke-width:59.05509949;stroke-linecap:round;stroke-linejoin:round;stroke-opacity:1"
       id="path1418" />
    <path
       d="m 48179.866,10235.806 h -5512 m 0,0 v -5512 m 5512,0 v 5512 m -5512,-5512 h 5512"
       style="fill:none;fill-opacity:0;stroke:#ff0000;stroke-width:59.05509949;stroke-linecap:round;stroke-linejoin:round;stroke-opacity:1"
       id="path1420" />
    <path
       d="m 40679.866,10235.806 h -5512 m 0,-5512 h 5512 m -5512,5512 v -5512 m 5512,0 v 5512"
       style="fill:none;fill-opacity:0;stroke:#ff0000;stroke-width:59.05509949;stroke-linecap:round;stroke-linejoin:round;stroke-opacity:1"
       id="path1434" />
    <path
       d="m 25679.866,10235.806 h -5512 m 5512,-5512 v 5512 m -5512,-5512 h 5512 m -5512,5512 v -5512"
       style="fill:none;fill-opacity:0;stroke:#ff0000;stroke-width:59.05509949;stroke-linecap:round;stroke-linejoin:round;stroke-opacity:1"
       id="path1436" />
    <path
       d="m 68917.866,4723.806 h 5512 m 0,0 v 5512 m -5512,0 v -5512 m 5512,5512 h -5512"
       style="fill:none;fill-opacity:0;stroke:#ff0000;stroke-width:59.05509949;stroke-linecap:round;stroke-linejoin:round;stroke-opacity:1"
       id="path1438" />
    <path
       d="m 55679.866,10235.806 h -5512 m 5512,-5512 v 5512 m -5512,0 v -5512 m 0,0 h 5512"
       style="fill:none;fill-opacity:0;stroke:#ff0000;stroke-width:59.05509949;stroke-linecap:round;stroke-linejoin:round;stroke-opacity:1"
       id="path1440" />
    <path
       d="m 27667.866,10235.806 v -5512 m 0,0 h 5512 m 0,0 v 5512 m 0,0 h -5512"
       style="fill:none;fill-opacity:0;stroke:#ff0000;stroke-width:59.05509949;stroke-linecap:round;stroke-linejoin:round;stroke-opacity:1"
       id="path1442" />
    <path
       d="m 109458.87,10215.806 v 362 m 1300,0 v -363 m -1300,363 h 1300 m -10669,-362 v 362 m 0,0 h 1298 m 0,0 v -362 m -2470.004,-5472 h 13017.004 m -5559,5472 h -4988 m -2484.004,0 v -5472 m 13031.004,0 v 5472 m 0,0 h -1177 m -10669,0 h -1185.004 m 10555.004,0 h -3083"
       style="fill:none;fill-opacity:0;stroke:#ff0000;stroke-width:59.05509949;stroke-linecap:round;stroke-linejoin:round;stroke-opacity:1"
       id="path1444" />
    <path
       d="m 16304.866,10235.806 h -5512 m 0,0 v -5512 m 5512,0 v 5512 m -5512,-5512 h 5512"
       style="fill:none;fill-opacity:0;stroke:#ff0000;stroke-width:59.05509949;stroke-linecap:round;stroke-linejoin:round;stroke-opacity:1"
       id="path1446" />
    <path
       d="m 74542.866,17735.806 v -5512 m 5512,0 v 5512 m 0,0 h -5512 m 0,-5512 h 5512"
       style="fill:none;fill-opacity:0;stroke:#ff0000;stroke-width:59.05509949;stroke-linecap:round;stroke-linejoin:round;stroke-opacity:1"
       id="path1490" />
    <path
       d="m 89542.866,17735.806 v -5512 m 5512,5512 h -5512 m 0,-5512 h 5512 m 0,0 v 5512"
       style="fill:none;fill-opacity:0;stroke:#ff0000;stroke-width:59.05509949;stroke-linecap:round;stroke-linejoin:round;stroke-opacity:1"
       id="path1500" />
    <path
       d="m 82042.866,12223.806 h 5512 m 0,0 v 5512 m -5512,0 v -5512 m 5512,5512 h -5512"
       style="fill:none;fill-opacity:0;stroke:#ff0000;stroke-width:59.05509949;stroke-linecap:round;stroke-linejoin:round;stroke-opacity:1"
       id="path1510" />
    <path
       d="m 67042.866,12223.806 h 5512 m 0,5512 h -5512 m 0,0 v -5512 m 5512,0 v 5512"
       style="fill:none;fill-opacity:0;stroke:#ff0000;stroke-width:59.05509949;stroke-linecap:round;stroke-linejoin:round;stroke-opacity:1"
       id="path1516" />
    <path
       d="m 59542.866,12223.806 h 5512 m 0,5512 h -5512 m 0,0 v -5512 m 5512,0 v 5512"
       style="fill:none;fill-opacity:0;stroke:#ff0000;stroke-width:59.05509949;stroke-linecap:round;stroke-linejoin:round;stroke-opacity:1"
       id="path1520" />
    <path
       d="m 57554.866,12223.806 v 5512 m -5512,0 v -5512 m 0,0 h 5512 m 0,5512 h -5512"
       style="fill:none;fill-opacity:0;stroke:#ff0000;stroke-width:59.05509949;stroke-linecap:round;stroke-linejoin:round;stroke-opacity:1"
       id="path1524" />
    <path
       d="m 42554.866,12223.806 v 5512 m 0,0 h -5512 m 0,0 v -5512 m 0,0 h 5512"
       style="fill:none;fill-opacity:0;stroke:#ff0000;stroke-width:59.05509949;stroke-linecap:round;stroke-linejoin:round;stroke-opacity:1"
       id="path1536" />
    <path
       d="m 35054.866,12223.806 v 5512 m -5512,0 v -5512 m 0,0 h 5512 m 0,5512 h -5512"
       style="fill:none;fill-opacity:0;stroke:#ff0000;stroke-width:59.05509949;stroke-linecap:round;stroke-linejoin:round;stroke-opacity:1"
       id="path1540" />
    <path
       d="m 50054.866,17735.806 h -5512 m 0,0 v -5512 m 5512,0 v 5512 m -5512,-5512 h 5512"
       style="fill:none;fill-opacity:0;stroke:#ff0000;stroke-width:59.05509949;stroke-linecap:round;stroke-linejoin:round;stroke-opacity:1"
       id="path1550" />
    <path
       d="m 22042.866,17735.806 v -5512 m 5512,0 v 5512 m 0,0 h -5512 m 0,-5512 h 5512"
       style="fill:none;fill-opacity:0;stroke:#ff0000;stroke-width:59.05509949;stroke-linecap:round;stroke-linejoin:round;stroke-opacity:1"
       id="path1552" />
    <path
       d="m 18179.866,17735.806 h -5512 m 0,-5512 h 5512 m 0,0 v 5512 m -5512,0 v -5512"
       style="fill:none;fill-opacity:0;stroke:#ff0000;stroke-width:59.05509949;stroke-linecap:round;stroke-linejoin:round;stroke-opacity:1"
       id="path1554" />
    <path
       id="path3179"
       d="m 19647.205,26230.705 a 472.4411,472.4411 0 0 1 -472.441,472.441 472.4411,472.4411 0 0 1 -472.441,-472.441 472.4411,472.4411 0 0 1 472.441,-472.441 472.4411,472.4411 0 0 1 472.441,472.441 z"
       style="opacity:1;vector-effect:none;fill:none;fill-opacity:0;fill-rule:nonzero;stroke:#ff0000;stroke-width:39.37009048;stroke-linecap:butt;stroke-linejoin:miter;stroke-miterlimit:4;stroke-dasharray:none;stroke-dashoffset:0;stroke-opacity:1;paint-order:markers fill stroke" />
    <path
       id="path3179-7"
       d="m 41210.207,26230.705 a 472.44128,472.44128 0 0 1 -472.441,472.441 472.44128,472.44128 0 0 1 -472.442,-472.441 472.44128,472.44128 0 0 1 472.442,-472.441 472.44128,472.44128 0 0 1 472.441,472.441 z"
       style="opacity:1;vector-effect:none;fill:none;fill-opacity:0;fill-rule:nonzero;stroke:#ff0000;stroke-width:39.37010574;stroke-linecap:butt;stroke-linejoin:miter;stroke-miterlimit:4;stroke-dasharray:none;stroke-dashoffset:0;stroke-opacity:1;paint-order:markers fill stroke" />
    <path
       id="path3179-0"
       d="m 74961.105,26230.705 a 472.44128,472.44128 0 0 1 -472.441,472.441 472.44128,472.44128 0 0 1 -472.441,-472.441 472.44128,472.44128 0 0 1 472.441,-472.441 472.44128,472.44128 0 0 1 472.441,472.441 z"
       style="opacity:1;vector-effect:none;fill:none;fill-opacity:0;fill-rule:nonzero;stroke:#ff0000;stroke-width:39.37010574;stroke-linecap:butt;stroke-linejoin:miter;stroke-miterlimit:4;stroke-dasharray:none;stroke-dashoffset:0;stroke-opacity:1;paint-order:markers fill stroke" />
    <path
       id="path3179-5"
       d="m 98399.308,26230.705 a 472.44128,472.44128 0 0 1 -472.441,472.441 472.44128,472.44128 0 0 1 -472.441,-472.441 472.44128,472.44128 0 0 1 472.441,-472.441 472.44128,472.44128 0 0 1 472.441,472.441 z"
       style="opacity:1;vector-effect:none;fill:none;fill-opacity:0;fill-rule:nonzero;stroke:#ff0000;stroke-width:39.37010574;stroke-linecap:butt;stroke-linejoin:miter;stroke-miterlimit:4;stroke-dasharray:none;stroke-dashoffset:0;stroke-opacity:1;paint-order:markers fill stroke" />
    <path
       id="path3179-2"
       d="m 90899.308,11230.306 a 472.44128,472.44128 0 0 1 -472.441,472.441 472.44128,472.44128 0 0 1 -472.441,-472.441 472.44128,472.44128 0 0 1 472.441,-472.442 472.44128,472.44128 0 0 1 472.441,472.442 z"
       style="opacity:1;vector-effect:none;fill:none;fill-opacity:0;fill-rule:nonzero;stroke:#ff0000;stroke-width:39.37010574;stroke-linecap:butt;stroke-linejoin:miter;stroke-miterlimit:4;stroke-dasharray:none;stroke-dashoffset:0;stroke-opacity:1;paint-order:markers fill stroke" />
    <path
       id="path3179-3"
       d="m 68398.41,11230.306 a 472.44128,472.44128 0 0 1 -472.441,472.441 472.44128,472.44128 0 0 1 -472.442,-472.441 472.44128,472.44128 0 0 1 472.442,-472.442 472.44128,472.44128 0 0 1 472.441,472.442 z"
       style="opacity:1;vector-effect:none;fill:none;fill-opacity:0;fill-rule:nonzero;stroke:#ff0000;stroke-width:39.37010574;stroke-linecap:butt;stroke-linejoin:miter;stroke-miterlimit:4;stroke-dasharray:none;stroke-dashoffset:0;stroke-opacity:1;paint-order:markers fill stroke" />
    <path
       id="path3179-4"
       d="m 27147.408,11230.306 a 472.44128,472.44128 0 0 1 -472.441,472.441 472.44128,472.44128 0 0 1 -472.441,-472.441 472.44128,472.44128 0 0 1 472.441,-472.442 472.44128,472.44128 0 0 1 472.441,472.442 z"
       style="opacity:1;vector-effect:none;fill:none;fill-opacity:0;fill-rule:nonzero;stroke:#ff0000;stroke-width:39.37010574;stroke-linecap:butt;stroke-linejoin:miter;stroke-miterlimit:4;stroke-dasharray:none;stroke-dashoffset:0;stroke-opacity:1;paint-order:markers fill stroke" />
    <path
       id="path3179-74"
       d="m 49647.91,11230.306 a 472.44128,472.44128 0 0 1 -472.441,472.441 472.44128,472.44128 0 0 1 -472.442,-472.441 472.44128,472.44128 0 0 1 472.442,-472.442 472.44128,472.44128 0 0 1 472.441,472.442 z"
       style="opacity:1;vector-effect:none;fill:none;fill-opacity:0;fill-rule:nonzero;stroke:#ff0000;stroke-width:39.37010574;stroke-linecap:butt;stroke-linejoin:miter;stroke-miterlimit:4;stroke-dasharray:none;stroke-dashoffset:0;stroke-opacity:1;paint-order:markers fill stroke" />
    <path
       d="m 53804.866,32735.806 h -5512.002 m 5512.002,-5512.002 v 5512.002 m -5512.002,0 v -5512.002 m 0,0 h 5512.002"
       style="fill:none;fill-opacity:0;stroke:#ff0000;stroke-width:59.05512238;stroke-linecap:round;stroke-linejoin:round;stroke-opacity:1"
       id="path1154-8"
       inkscape:connector-curvature="0" />
    <path
       d="m 68804.868,32735.806 h -5512.002 m 5512.002,-5512.002 v 5512.002 m -5512.002,0 v -5512.002 m 0,0 h 5512.002"
       style="fill:none;fill-opacity:0;stroke:#ff0000;stroke-width:59.05512238;stroke-linecap:round;stroke-linejoin:round;stroke-opacity:1"
       id="path1154-83"
       inkscape:connector-curvature="0" />
    <path
       d="m 107241.87,17735.806 h -5512 m 5512,-5512.002 v 5512.002 m -5512,0 v -5512.002 m 0,0 h 5512"
       style="fill:none;fill-opacity:0;stroke:#ff0000;stroke-width:59.05512238;stroke-linecap:round;stroke-linejoin:round;stroke-opacity:1"
       id="path1154-1"
       inkscape:connector-curvature="0" />
    <path
       d="m 80054.868,27223.415 v 5512.002 m 0,0 h -5512.002 m 0,-5512.002 h 5512.002 m -5512.002,5512.002 v -5512.002"
       style="fill:none;fill-opacity:0;stroke:#ff0000;stroke-width:59.05512238;stroke-linecap:round;stroke-linejoin:round;stroke-opacity:1"
       id="path1224-6"
       inkscape:connector-curvature="0" />
  </g>
</svg>
