<?xml version="1.0" encoding="UTF-8" standalone="no"?>
<!-- Generated by SVGo -->

<svg
   xmlns:dc="http://purl.org/dc/elements/1.1/"
   xmlns:cc="http://creativecommons.org/ns#"
   xmlns:rdf="http://www.w3.org/1999/02/22-rdf-syntax-ns#"
   xmlns:svg="http://www.w3.org/2000/svg"
   xmlns="http://www.w3.org/2000/svg"
   xmlns:sodipodi="http://sodipodi.sourceforge.net/DTD/sodipodi-0.dtd"
   xmlns:inkscape="http://www.inkscape.org/namespaces/inkscape"
   width="297mm"
   height="210mm"
   viewBox="0 0 296.99999 210.00001"
   version="1.1"
   id="svg64"
   sodipodi:docname="Stonehenge30_case.svg"
   inkscape:version="0.92.3 (2405546, 2018-03-11)">
  <metadata
     id="metadata70">
    <rdf:RDF>
      <cc:Work
         rdf:about="">
        <dc:format>image/svg+xml</dc:format>
        <dc:type
           rdf:resource="http://purl.org/dc/dcmitype/StillImage" />
        <dc:title></dc:title>
      </cc:Work>
    </rdf:RDF>
  </metadata>
  <defs
     id="defs68" />
  <sodipodi:namedview
     pagecolor="#ffffff"
     bordercolor="#666666"
     borderopacity="1"
     objecttolerance="10"
     gridtolerance="10"
     guidetolerance="10"
     inkscape:pageopacity="0"
     inkscape:pageshadow="2"
     inkscape:window-width="3840"
     inkscape:window-height="2066"
     id="namedview66"
     showgrid="true"
     inkscape:snap-grids="true"
     showguides="true"
     inkscape:snap-smooth-nodes="true"
     inkscape:measure-start="0,0"
     inkscape:measure-end="0,0"
     inkscape:snap-page="true"
     inkscape:zoom="1.2035335"
     inkscape:cx="934.54826"
     inkscape:cy="217.33336"
     inkscape:window-x="3829"
     inkscape:window-y="-11"
     inkscape:window-maximized="1"
     inkscape:current-layer="svg64"
     inkscape:snap-object-midpoints="true"
     inkscape:snap-intersection-paths="false"
     inkscape:snap-bbox="true">
    <inkscape:grid
       type="xygrid"
       id="grid880"
       units="mm"
       spacingx="3"
       spacingy="3"
       enabled="false" />
    <inkscape:grid
       type="xygrid"
       id="grid948"
       units="mm"
       spacingx="2.38131"
       spacingy="2.38131" />
  </sodipodi:namedview>
  <g
     id="g985"
     transform="translate(7.14393,-7.1439361)">
    <path
       id="polygon4"
       d="m 12.286,64.386 h 14 v -14 h -14 z"
       style="fill:none;stroke:#fe0000;stroke-width:0.1;stroke-miterlimit:4;stroke-dasharray:none;stroke-opacity:1"
       transform="translate(-4.95,138.278)"
       inkscape:connector-curvature="0" />
    <path
       id="polygon6"
       d="m 31.336,64.386 h 14 v -14 h -14 z"
       style="fill:none;stroke:#fe0000;stroke-width:0.1;stroke-miterlimit:4;stroke-dasharray:none;stroke-opacity:1"
       transform="translate(-4.95,138.278)"
       inkscape:connector-curvature="0" />
    <path
       id="polygon8"
       d="m 50.386,64.386 h 14 v -14 h -14 z"
       style="fill:none;stroke:#fe0000;stroke-width:0.1;stroke-miterlimit:4;stroke-dasharray:none;stroke-opacity:1"
       transform="translate(-4.95,138.278)"
       inkscape:connector-curvature="0" />
    <path
       id="polygon10"
       d="m 69.436,64.386 h 14 v -14 h -14 z"
       style="fill:none;stroke:#fe0000;stroke-width:0.1;stroke-miterlimit:4;stroke-dasharray:none;stroke-opacity:1"
       transform="translate(-4.95,138.278)"
       inkscape:connector-curvature="0" />
    <path
       id="polygon12"
       d="m 88.486,64.386 h 14 v -14 h -14 z"
       style="fill:none;stroke:#fe0000;stroke-width:0.1;stroke-miterlimit:4;stroke-dasharray:none;stroke-opacity:1"
       transform="translate(-4.95,138.278)"
       inkscape:connector-curvature="0" />
    <path
       id="polygon14"
       d="m 107.536,64.386 h 14 v -14 h -14 z"
       style="fill:none;stroke:#fe0000;stroke-width:0.1;stroke-miterlimit:4;stroke-dasharray:none;stroke-opacity:1"
       transform="translate(-4.95,138.278)"
       inkscape:connector-curvature="0" />
    <path
       id="polygon16"
       d="m 126.586,64.386 h 14 v -14 h -14 z"
       style="fill:none;stroke:#fe0000;stroke-width:0.1;stroke-miterlimit:4;stroke-dasharray:none;stroke-opacity:1"
       transform="translate(-4.95,138.278)"
       inkscape:connector-curvature="0" />
    <path
       id="polygon18"
       d="m 145.636,64.386 h 14 v -14 h -14 z"
       style="fill:none;stroke:#fe0000;stroke-width:0.1;stroke-miterlimit:4;stroke-dasharray:none;stroke-opacity:1"
       transform="translate(-4.95,138.278)"
       inkscape:connector-curvature="0" />
    <path
       id="polygon20"
       d="m 164.686,64.386 h 14 v -14 h -14 z"
       style="fill:none;stroke:#fe0000;stroke-width:0.1;stroke-miterlimit:4;stroke-dasharray:none;stroke-opacity:1"
       transform="translate(-4.95,138.278)"
       inkscape:connector-curvature="0" />
    <path
       id="polygon22"
       d="m 17.048,45.336 h 14 v -14 h -14 z"
       style="fill:none;stroke:#fe0000;stroke-width:0.1;stroke-miterlimit:4;stroke-dasharray:none;stroke-opacity:1"
       transform="translate(-4.95,138.278)"
       inkscape:connector-curvature="0" />
    <path
       id="polygon24"
       d="m 36.098,45.336 h 14 v -14 h -14 z"
       style="fill:none;stroke:#fe0000;stroke-width:0.1;stroke-miterlimit:4;stroke-dasharray:none;stroke-opacity:1"
       transform="translate(-4.95,138.278)"
       inkscape:connector-curvature="0" />
    <path
       id="polygon26"
       d="m 55.148,45.336 h 14 v -14 h -14 z"
       style="fill:none;stroke:#fe0000;stroke-width:0.1;stroke-miterlimit:4;stroke-dasharray:none;stroke-opacity:1"
       transform="translate(-4.95,138.278)"
       inkscape:connector-curvature="0" />
    <path
       id="polygon28"
       d="m 74.198,45.336 h 14 v -14 h -14 z"
       style="fill:none;stroke:#fe0000;stroke-width:0.1;stroke-miterlimit:4;stroke-dasharray:none;stroke-opacity:1"
       transform="translate(-4.95,138.278)"
       inkscape:connector-curvature="0" />
    <path
       id="polygon30"
       d="m 93.248,45.336 h 14 v -14 h -14 z"
       style="fill:none;stroke:#fe0000;stroke-width:0.1;stroke-miterlimit:4;stroke-dasharray:none;stroke-opacity:1"
       transform="translate(-4.95,138.278)"
       inkscape:connector-curvature="0" />
    <path
       id="polygon32"
       d="m 121.823,45.336 h 14 v -14 h -14 z"
       style="fill:none;stroke:#fe0000;stroke-width:0.1;stroke-miterlimit:4;stroke-dasharray:none;stroke-opacity:1"
       transform="translate(-4.95,138.278)"
       inkscape:connector-curvature="0" />
    <path
       id="polygon34"
       d="m 140.873,45.336 h 14 v -14 h -14 z"
       style="fill:none;stroke:#fe0000;stroke-width:0.1;stroke-miterlimit:4;stroke-dasharray:none;stroke-opacity:1"
       transform="translate(-4.95,138.278)"
       inkscape:connector-curvature="0" />
    <path
       id="polygon36"
       d="m 159.923,45.336 h 14 v -14 h -14 z"
       style="fill:none;stroke:#fe0000;stroke-width:0.1;stroke-miterlimit:4;stroke-dasharray:none;stroke-opacity:1"
       transform="translate(-4.95,138.278)"
       inkscape:connector-curvature="0" />
    <path
       id="polygon38"
       d="m 178.973,45.336 h 14 v -14 h -14 z"
       style="fill:none;stroke:#fe0000;stroke-width:0.1;stroke-miterlimit:4;stroke-dasharray:none;stroke-opacity:1"
       transform="translate(-4.95,138.278)"
       inkscape:connector-curvature="0" />
    <path
       id="polygon40"
       d="m 198.023,45.336 h 14 v -14 h -14 z"
       style="fill:none;stroke:#fe0000;stroke-width:0.1;stroke-miterlimit:4;stroke-dasharray:none;stroke-opacity:1"
       transform="translate(-4.95,138.278)"
       inkscape:connector-curvature="0" />
    <path
       id="polygon42"
       d="m 12.286,26.286 h 14 v -14 h -14 z"
       style="fill:none;stroke:#fe0000;stroke-width:0.1;stroke-miterlimit:4;stroke-dasharray:none;stroke-opacity:1"
       transform="translate(-4.95,138.278)"
       inkscape:connector-curvature="0" />
    <path
       id="polygon44"
       d="m 31.336,26.286 h 14 v -14 h -14 z"
       style="fill:none;stroke:#fe0000;stroke-width:0.1;stroke-miterlimit:4;stroke-dasharray:none;stroke-opacity:1"
       transform="translate(-4.95,138.278)"
       inkscape:connector-curvature="0" />
    <path
       id="polygon46"
       d="m 50.386,26.286 h 14 v -14 h -14 z"
       style="fill:none;stroke:#fe0000;stroke-width:0.1;stroke-miterlimit:4;stroke-dasharray:none;stroke-opacity:1"
       transform="translate(-4.95,138.278)"
       inkscape:connector-curvature="0" />
    <path
       id="polygon48"
       d="m 69.436,26.286 h 14 v -14 h -14 z"
       style="fill:none;stroke:#fe0000;stroke-width:0.1;stroke-miterlimit:4;stroke-dasharray:none;stroke-opacity:1"
       transform="translate(-4.95,138.278)"
       inkscape:connector-curvature="0" />
    <path
       id="polygon50"
       d="m 88.486,26.286 h 14 v -14 h -14 z"
       style="fill:none;stroke:#fe0000;stroke-width:0.1;stroke-miterlimit:4;stroke-dasharray:none;stroke-opacity:1"
       transform="translate(-4.95,138.278)"
       inkscape:connector-curvature="0" />
    <path
       id="polygon52"
       d="m 107.536,26.286 h 14 v -14 h -14 z"
       style="fill:none;stroke:#fe0000;stroke-width:0.1;stroke-miterlimit:4;stroke-dasharray:none;stroke-opacity:1"
       transform="translate(-4.95,138.278)"
       inkscape:connector-curvature="0" />
    <path
       id="polygon54"
       d="m 126.586,26.286 h 14 v -14 h -14 z"
       style="fill:none;stroke:#fe0000;stroke-width:0.1;stroke-miterlimit:4;stroke-dasharray:none;stroke-opacity:1"
       transform="translate(-4.95,138.278)"
       inkscape:connector-curvature="0" />
    <path
       id="polygon56"
       d="m 145.636,26.286 h 14 v -14 h -14 z"
       style="fill:none;stroke:#fe0000;stroke-width:0.1;stroke-miterlimit:4;stroke-dasharray:none;stroke-opacity:1"
       transform="translate(-4.95,138.278)"
       inkscape:connector-curvature="0" />
    <path
       id="polygon58"
       d="m 164.686,26.286 h 14 v -14 h -14 z"
       style="fill:none;stroke:#fe0000;stroke-width:0.1;stroke-miterlimit:4;stroke-dasharray:none;stroke-opacity:1"
       transform="translate(-4.95,138.278)"
       inkscape:connector-curvature="0" />
    <path
       id="polygon60"
       d="m 183.736,26.286 h 14 v -14 h -14 z"
       style="fill:none;stroke:#fe0000;stroke-width:0.1;stroke-miterlimit:4;stroke-dasharray:none;stroke-opacity:1"
       transform="translate(-4.95,138.278)"
       inkscape:connector-curvature="0" />
    <path
       id="polygon62"
       d="m 202.786,26.286 h 14 v -14 h -14 z"
       style="fill:none;stroke:#fe0000;stroke-width:0.1;stroke-miterlimit:4;stroke-dasharray:none;stroke-opacity:1"
       transform="translate(-4.95,138.278)"
       inkscape:connector-curvature="0" />
    <circle
       r="1.2"
       cy="145.70464"
       cx="216.6992"
       id="path882-5-7"
       style="opacity:1;vector-effect:none;fill:none;fill-opacity:1;fill-rule:nonzero;stroke:#fe0000;stroke-width:0.1;stroke-linecap:butt;stroke-linejoin:miter;stroke-miterlimit:4;stroke-dasharray:none;stroke-dashoffset:0;stroke-opacity:1;paint-order:markers fill stroke" />
    <circle
       r="1.2"
       cy="145.70464"
       cx="2.38131"
       id="path882-5-0"
       style="opacity:1;vector-effect:none;fill:none;fill-opacity:1;fill-rule:nonzero;stroke:#fe0000;stroke-width:0.1;stroke-linecap:butt;stroke-linejoin:miter;stroke-miterlimit:4;stroke-dasharray:none;stroke-dashoffset:0;stroke-opacity:1;paint-order:markers fill stroke" />
    <circle
       r="1.2"
       cy="207.6187"
       cx="2.38131"
       id="path882-5-2"
       style="opacity:1;vector-effect:none;fill:none;fill-opacity:1;fill-rule:nonzero;stroke:#fe0000;stroke-width:0.1;stroke-linecap:butt;stroke-linejoin:miter;stroke-miterlimit:4;stroke-dasharray:none;stroke-dashoffset:0;stroke-opacity:1;paint-order:markers fill stroke" />
    <circle
       r="1.2"
       cy="207.6187"
       cx="147.64122"
       id="path882-5-1"
       style="opacity:1;vector-effect:none;fill:none;fill-opacity:1;fill-rule:nonzero;stroke:#fe0000;stroke-width:0.1;stroke-linecap:butt;stroke-linejoin:miter;stroke-miterlimit:4;stroke-dasharray:none;stroke-dashoffset:0;stroke-opacity:1;paint-order:markers fill stroke" />
    <circle
       r="1.2"
       cy="207.6187"
       cx="71.439301"
       id="path882-5-1-4"
       style="opacity:1;vector-effect:none;fill:none;fill-opacity:1;fill-rule:nonzero;stroke:#fe0000;stroke-width:0.1;stroke-linecap:butt;stroke-linejoin:miter;stroke-miterlimit:4;stroke-dasharray:none;stroke-dashoffset:0;stroke-opacity:1;paint-order:markers fill stroke" />
    <circle
       r="1.2"
       cy="145.70464"
       cx="71.439301"
       id="path882-5-1-5"
       style="opacity:1;vector-effect:none;fill:none;fill-opacity:1;fill-rule:nonzero;stroke:#fe0000;stroke-width:0.1;stroke-linecap:butt;stroke-linejoin:miter;stroke-miterlimit:4;stroke-dasharray:none;stroke-dashoffset:0;stroke-opacity:1;paint-order:markers fill stroke" />
    <circle
       r="1.2"
       cy="145.70464"
       cx="147.64122"
       id="path882-5-1-42"
       style="opacity:1;vector-effect:none;fill:none;fill-opacity:1;fill-rule:nonzero;stroke:#fe0000;stroke-width:0.1;stroke-linecap:butt;stroke-linejoin:miter;stroke-miterlimit:4;stroke-dasharray:none;stroke-dashoffset:0;stroke-opacity:1;paint-order:markers fill stroke" />
    <path
       sodipodi:nodetypes="ccssssccccccccccscccccc"
       inkscape:connector-curvature="0"
       id="path907-2-7"
       d="M 0.69746936,164.05764 C 0.25088477,163.61106 -2.7369048e-6,163.00536 -1.1920929e-7,162.37379 L 0.04999999,145.17804 c 0.0032217,-1.108 0.892,-2 2.00000001,-2 h 215.07201 c 1.108,0 1.95851,0.892 1.95851,2 v 17.1958 c -1e-5,1.31516 -1.06616,2.38131 -2.38132,2.38132 -1.31516,1e-5 -2.38131,1.06616 -2.38131,2.38131 0.009,5.66838 -0.0246,11.33685 0.0226,17.00508 0.009,1.10796 -0.892,1.999 -2,2 0,0 -20.90101,0.0353 -33.74226,0.0454 -1.31515,0 -2.3813,1.06615 -2.38131,2.38131 l -0.0627,19.05028 c 0.005,1.31539 -1.03495,2.38181 -2.31842,2.38166 L 2.05,209.95 c -1.10799996,-3.2e-4 -1.99674131,-0.892 -2.00000001,-2 L -1.1920929e-7,190.94952 C -1.2796163e-7,189.63436 1.0661488,188.56821 2.38131,188.56821 c 1.3151651,1e-5 2.3813156,-1.06614 2.3813101,-2.38131 v -19.05048 c 0,-1.31515 -1.0661489,-2.3813 -2.3813101,-2.38131 -0.6315614,-1e-5 -1.2372568,-0.25089 -1.68384064,-0.69747 z"
       style="opacity:1;vector-effect:none;fill:none;fill-opacity:1;fill-rule:nonzero;stroke:#ff0000;stroke-width:0.09999998;stroke-linecap:butt;stroke-linejoin:miter;stroke-miterlimit:4;stroke-dasharray:none;stroke-dashoffset:0;stroke-opacity:1;paint-order:markers fill stroke" />
  </g>
  <g
     id="g996"
     transform="translate(7.1439306,-7.143928)">
    <path
       style="opacity:1;vector-effect:none;fill:none;fill-opacity:1;fill-rule:nonzero;stroke:#fe0000;stroke-width:0.1;stroke-linecap:butt;stroke-linejoin:miter;stroke-miterlimit:4;stroke-dasharray:none;stroke-dashoffset:0;stroke-opacity:1;paint-order:markers fill stroke"
       d="m 217.8992,136.17939 a 1.2,1.2 0 0 1 -1.2,1.2 1.2,1.2 0 0 1 -1.2,-1.2 1.2,1.2 0 0 1 1.2,-1.2 1.2,1.2 0 0 1 1.2,1.2 z"
       id="path882-5"
       inkscape:connector-curvature="0" />
    <path
       style="opacity:1;vector-effect:none;fill:none;fill-opacity:1;fill-rule:nonzero;stroke:#fe0000;stroke-width:0.1;stroke-linecap:butt;stroke-linejoin:miter;stroke-miterlimit:4;stroke-dasharray:none;stroke-dashoffset:0;stroke-opacity:1;paint-order:markers fill stroke"
       d="m 217.8992,74.265334 a 1.2,1.2 0 0 1 -1.2,1.2 1.2,1.2 0 0 1 -1.2,-1.2 1.2,1.2 0 0 1 1.2,-1.2 1.2,1.2 0 0 1 1.2,1.2 z"
       id="path882-5-7-1"
       inkscape:connector-curvature="0" />
    <path
       style="opacity:1;vector-effect:none;fill:none;fill-opacity:1;fill-rule:nonzero;stroke:#fe0000;stroke-width:0.1;stroke-linecap:butt;stroke-linejoin:miter;stroke-miterlimit:4;stroke-dasharray:none;stroke-dashoffset:0;stroke-opacity:1;paint-order:markers fill stroke"
       d="m 3.5813095,74.265334 a 1.2,1.2 0 0 1 -1.2,1.2 1.2,1.2 0 0 1 -1.2000001,-1.2 1.2,1.2 0 0 1 1.2000001,-1.2 1.2,1.2 0 0 1 1.2,1.2 z"
       id="path882-5-0-9"
       inkscape:connector-curvature="0" />
    <path
       style="opacity:1;vector-effect:none;fill:none;fill-opacity:1;fill-rule:nonzero;stroke:#fe0000;stroke-width:0.1;stroke-linecap:butt;stroke-linejoin:miter;stroke-miterlimit:4;stroke-dasharray:none;stroke-dashoffset:0;stroke-opacity:1;paint-order:markers fill stroke"
       d="m 3.5813095,136.17939 a 1.2,1.2 0 0 1 -1.2,1.2 1.2,1.2 0 0 1 -1.2000001,-1.2 1.2,1.2 0 0 1 1.2000001,-1.2 1.2,1.2 0 0 1 1.2,1.2 z"
       id="path882-5-2-9"
       inkscape:connector-curvature="0" />
    <path
       style="opacity:1;vector-effect:none;fill:none;fill-opacity:1;fill-rule:nonzero;stroke:#fe0000;stroke-width:0.1;stroke-linecap:butt;stroke-linejoin:miter;stroke-miterlimit:4;stroke-dasharray:none;stroke-dashoffset:0;stroke-opacity:1;paint-order:markers fill stroke"
       d="m 148.84122,136.17939 a 1.2,1.2 0 0 1 -1.2,1.2 1.2,1.2 0 0 1 -1.2,-1.2 1.2,1.2 0 0 1 1.2,-1.2 1.2,1.2 0 0 1 1.2,1.2 z"
       id="path882-5-0-8"
       inkscape:connector-curvature="0" />
    <path
       style="opacity:1;vector-effect:none;fill:none;fill-opacity:1;fill-rule:nonzero;stroke:#fe0000;stroke-width:0.1;stroke-linecap:butt;stroke-linejoin:miter;stroke-miterlimit:4;stroke-dasharray:none;stroke-dashoffset:0;stroke-opacity:1;paint-order:markers fill stroke"
       d="m 72.6393,136.17939 a 1.2,1.2 0 0 1 -1.2,1.2 1.2,1.2 0 0 1 -1.200001,-1.2 1.2,1.2 0 0 1 1.200001,-1.2 1.2,1.2 0 0 1 1.2,1.2 z"
       id="path882-5-0-5"
       inkscape:connector-curvature="0" />
    <path
       style="opacity:1;vector-effect:none;fill:none;fill-opacity:1;fill-rule:nonzero;stroke:#fe0000;stroke-width:0.1;stroke-linecap:butt;stroke-linejoin:miter;stroke-miterlimit:4;stroke-dasharray:none;stroke-dashoffset:0;stroke-opacity:1;paint-order:markers fill stroke"
       d="m 72.6393,74.265334 a 1.2,1.2 0 0 1 -1.2,1.2 1.2,1.2 0 0 1 -1.200001,-1.2 1.2,1.2 0 0 1 1.200001,-1.2 1.2,1.2 0 0 1 1.2,1.2 z"
       id="path882-5-0-6"
       inkscape:connector-curvature="0" />
    <path
       style="opacity:1;vector-effect:none;fill:none;fill-opacity:1;fill-rule:nonzero;stroke:#fe0000;stroke-width:0.1;stroke-linecap:butt;stroke-linejoin:miter;stroke-miterlimit:4;stroke-dasharray:none;stroke-dashoffset:0;stroke-opacity:1;paint-order:markers fill stroke"
       d="m 148.84122,74.265334 a 1.2,1.2 0 0 1 -1.2,1.2 1.2,1.2 0 0 1 -1.2,-1.2 1.2,1.2 0 0 1 1.2,-1.2 1.2,1.2 0 0 1 1.2,1.2 z"
       id="path882-5-0-67"
       inkscape:connector-curvature="0" />
    <path
       sodipodi:nodetypes="cccssscscccccssscccsccc"
       inkscape:connector-curvature="0"
       id="path916"
       d="m 216.6992,93.315815 c 1.31516,-3e-6 2.38131,-1.066152 2.38131,-2.381312 l 0.0415,-17.195819 c 0.003,-1.108 -0.892,-2 -2,-2 H 2.0499995 c -1.10800005,0 -1.99677835,0.892 -2.00000005,2 L -1.1920929e-7,90.934499 C -3.499485e-7,91.566057 0.25088697,92.171753 0.69746936,92.618335 1.1440518,93.064917 1.7497473,93.315804 2.38131,93.315811 c 1.3151612,7e-6 2.3813101,1.066156 2.3813101,2.381315 V 114.7476 c 0,1.31516 -1.0661489,2.38131 -2.3813101,2.38132 -1.3151612,0 -2.38131012796164,1.06615 -2.38131011920929,2.38131 L 0.04999945,136.51069 c 0.0032587,1.108 0.892,2 2.00000005,2 H 217.122 c 1.108,0 2.003,-0.892 2,-2 l -0.0415,-17.00046 c 1e-5,-1.31515 -1.06614,-2.3813 -2.3813,-2.38131 -0.63156,0 -1.23726,-0.25089 -1.68384,-0.69747 -0.44658,-0.44658 -0.69747,-1.05228 -0.69746,-1.68385 V 95.697125 c -1e-5,-1.315158 1.06614,-2.381307 2.3813,-2.38131 z"
       style="opacity:1;vector-effect:none;fill:none;fill-opacity:1;fill-rule:nonzero;stroke:#fd0000;stroke-width:0.09999998;stroke-linecap:butt;stroke-linejoin:miter;stroke-miterlimit:4;stroke-dasharray:none;stroke-dashoffset:0;stroke-opacity:1;paint-order:markers fill stroke" />
  </g>
</svg>
