<?xml version="1.0" encoding="UTF-8" standalone="no"?>
<!-- Generated by SVGo -->

<svg
   xmlns:dc="http://purl.org/dc/elements/1.1/"
   xmlns:cc="http://creativecommons.org/ns#"
   xmlns:rdf="http://www.w3.org/1999/02/22-rdf-syntax-ns#"
   xmlns:svg="http://www.w3.org/2000/svg"
   xmlns="http://www.w3.org/2000/svg"
   xmlns:sodipodi="http://sodipodi.sourceforge.net/DTD/sodipodi-0.dtd"
   xmlns:inkscape="http://www.inkscape.org/namespaces/inkscape"
   width="297mm"
   height="420mm"
   viewBox="0 0 296.99999 420.00001"
   version="1.1"
   id="svg64"
   sodipodi:docname="Stonehenge30_case_sandwitch.svg"
   inkscape:version="0.92.3 (2405546, 2018-03-11)">
  <metadata
     id="metadata70">
    <rdf:RDF>
      <cc:Work
         rdf:about="">
        <dc:format>image/svg+xml</dc:format>
        <dc:type
           rdf:resource="http://purl.org/dc/dcmitype/StillImage" />
        <dc:title></dc:title>
      </cc:Work>
    </rdf:RDF>
  </metadata>
  <defs
     id="defs68" />
  <sodipodi:namedview
     pagecolor="#ffffff"
     bordercolor="#666666"
     borderopacity="1"
     objecttolerance="10"
     gridtolerance="10"
     guidetolerance="10"
     inkscape:pageopacity="0"
     inkscape:pageshadow="2"
     inkscape:window-width="1920"
     inkscape:window-height="1017"
     id="namedview66"
     showgrid="true"
     inkscape:snap-grids="true"
     showguides="true"
     inkscape:snap-smooth-nodes="true"
     inkscape:measure-start="905.981,846.021"
     inkscape:measure-end="905.981,756.019"
     inkscape:snap-page="true"
     inkscape:zoom="0.45254834"
     inkscape:cx="1066.4195"
     inkscape:cy="826.21197"
     inkscape:window-x="-8"
     inkscape:window-y="-8"
     inkscape:window-maximized="1"
     inkscape:current-layer="svg64"
     inkscape:snap-object-midpoints="true"
     inkscape:snap-intersection-paths="true"
     inkscape:snap-bbox="true"
     inkscape:bbox-nodes="true"
     inkscape:object-nodes="true"
     inkscape:snap-nodes="true"
     inkscape:snap-others="true"
     inkscape:snap-bbox-midpoints="false">
    <inkscape:grid
       type="xygrid"
       id="grid880"
       units="mm"
       spacingx="3"
       spacingy="3"
       enabled="false" />
    <inkscape:grid
       type="xygrid"
       id="grid948"
       units="mm"
       spacingx="2.38131"
       spacingy="2.38131"
       enabled="false" />
    <inkscape:grid
       type="xygrid"
       id="grid824"
       units="mm"
       spacingx="4.76262"
       spacingy="4.76262"
       enabled="false" />
    <inkscape:grid
       units="mm"
       spacingx="1.19066"
       spacingy="1.190655"
       type="xygrid"
       id="grid4959"
       enabled="true" />
  </sodipodi:namedview>
  <path
     style="fill:#005c48;fill-opacity:0.42352942;stroke:#ff0000;stroke-width:0.1;stroke-miterlimit:4;stroke-dasharray:none;stroke-opacity:1"
     d="m 64.01406,17.363059 c -1.10801,0 -1.9974,0.89188 -2.0004,1.99988 l -0.0496,17.19585 c 0,0.63156 0.25053,1.23704 0.69711,1.68363 0.44659,0.44656 1.05258,0.6976 1.68414,0.69762 1.31516,0 2.38125,1.06609 2.38125,2.38125 v 19.05051 c 10e-6,1.31519 -1.06608,2.38127 -2.38125,2.38125 -1.31516,0 -2.38125,1.06611 -2.38125,2.38125 l 0.0496,17.00051 c 0.003,1.10802 0.89239,1.99956 2.0004,1.99988 l 171.78589,0.0506 c 1.28347,1.6e-4 2.32321,-1.06638 2.31821,-2.38176 l 0.0625,-19.05052 c 2e-5,-1.31514 1.06611,-2.38125 2.38125,-2.38125 12.84126,-0.0101 33.74265,-0.0455 33.74265,-0.0455 1.108,-10e-4 2.00888,-0.89194 1.99988,-1.99988 -0.0472,-5.66825 -0.0137,-11.33679 -0.0227,-17.00517 0,-1.31516 1.06609,-2.38125 2.38125,-2.38125 1.31516,-2e-5 2.38124,-1.06608 2.38125,-2.38125 v -17.19585 c 0,-1.108 -0.85054,-1.99988 -1.95854,-1.99988 z m 0.33124,1.32654 a 1.2,1.2 0 0 1 1.19993,1.19991 1.2,1.2 0 0 1 -1.19993,1.19994 1.2,1.2 0 0 1 -1.19993,-1.19994 1.2,1.2 0 0 1 1.19993,-1.19991 z m 69.0578,0 a 1.2,1.2 0 0 1 1.19993,1.19991 1.2,1.2 0 0 1 -1.19993,1.19994 1.2,1.2 0 0 1 -1.19993,-1.19994 1.2,1.2 0 0 1 1.19993,-1.19991 z m 76.20207,0 a 1.2,1.2 0 0 1 1.19993,1.19991 1.2,1.2 0 0 1 -1.19993,1.19994 1.2,1.2 0 0 1 -1.19993,-1.19994 1.2,1.2 0 0 1 1.19993,-1.19991 z m 69.0578,0 a 1.2,1.2 0 0 1 1.19993,1.19991 1.2,1.2 0 0 1 -1.19993,1.19994 1.2,1.2 0 0 1 -1.19993,-1.19994 1.2,1.2 0 0 1 1.19993,-1.19991 z M 69.30004,24.749169 H 83.2997 v 13.99966 H 69.30004 Z m 19.05,0 h 13.99966 v 13.99966 H 88.35004 Z m 19.05,0 h 13.99966 v 13.99966 h -13.99966 z m 19.05,0 h 13.99966 v 13.99966 h -13.99966 z m 19.05,0 h 13.99966 v 13.99966 h -13.99966 z m 19.05,0 h 13.99966 v 13.99966 h -13.99966 z m 19.05,0 h 13.99966 v 13.99966 h -13.99966 z m 19.05,0 h 13.99966 v 13.99966 h -13.99966 z m 19.05,0 h 13.99966 v 13.99966 h -13.99966 z m 19.05,0 h 13.99966 v 13.99966 h -13.99966 z m 19.05,0 h 13.99966 v 13.99966 h -13.99966 z m -185.73802,19.05 h 13.99966 v 13.99966 H 74.06202 Z m 19.05,0 h 13.99966 v 13.99966 H 93.11202 Z m 19.05,0 h 13.99966 v 13.99966 h -13.99966 z m 19.05,0 h 13.99966 v 13.99966 h -13.99966 z m 19.05,0 h 13.99967 v 13.99966 h -13.99967 z m 28.575,0 h 13.99966 v 13.99966 h -13.99966 z m 19.05,0 h 13.99966 v 13.99966 h -13.99966 z m 19.05,0 h 13.99966 v 13.99966 h -13.99966 z m 19.05,0 h 13.99966 v 13.99966 h -13.99966 z m 19.05,0 h 13.99966 v 13.99966 h -13.99966 z m -185.73698,19.05 H 83.2997 v 13.99966 H 69.30004 Z m 19.05,0 h 13.99966 v 13.99966 H 88.35004 Z m 19.05,0 h 13.99966 v 13.99966 h -13.99966 z m 19.05,0 h 13.99966 v 13.99966 h -13.99966 z m 19.05,0 h 13.99966 v 13.99966 h -13.99966 z m 19.05,0 h 13.99966 v 13.99966 h -13.99966 z m 19.05,0 h 13.99966 v 13.99966 h -13.99966 z m 19.05,0 h 13.99966 v 13.99966 h -13.99966 z m 19.05,0 h 13.99966 v 13.99966 H 221.70004 Z M 64.3453,80.603639 a 1.2,1.2 0 0 1 1.19993,1.19993 1.2,1.2 0 0 1 -1.19993,1.19992 1.2,1.2 0 0 1 -1.19993,-1.19992 1.2,1.2 0 0 1 1.19993,-1.19993 z m 69.0578,0 a 1.2,1.2 0 0 1 1.19993,1.19993 1.2,1.2 0 0 1 -1.19993,1.19992 1.2,1.2 0 0 1 -1.19993,-1.19992 1.2,1.2 0 0 1 1.19993,-1.19993 z m 76.20207,0 a 1.2,1.2 0 0 1 1.19993,1.19993 1.2,1.2 0 0 1 -1.19993,1.19992 1.2,1.2 0 0 1 -1.19993,-1.19992 1.2,1.2 0 0 1 1.19993,-1.19993 z"
     id="polygon4"
     inkscape:connector-curvature="0" />
  <path
     style="opacity:1;vector-effect:none;fill:#005c48;fill-opacity:0.42307691;fill-rule:nonzero;stroke:#ff0000;stroke-width:0.37795275;stroke-linecap:butt;stroke-linejoin:miter;stroke-miterlimit:4;stroke-dasharray:none;stroke-dashoffset:0;stroke-opacity:1;paint-order:markers fill stroke"
     d="M 34.748047 1236.2031 C 30.560327 1236.2031 27.189453 1239.574 27.189453 1243.7617 L 27.189453 1552.6523 C 27.189453 1556.8401 30.560327 1560.2129 34.748047 1560.2129 L 883.65234 1560.2129 C 887.84006 1560.2129 891.21094 1556.8401 891.21094 1552.6523 L 891.21094 1243.7617 C 891.21094 1239.574 887.84006 1236.2031 883.65234 1236.2031 L 34.748047 1236.2031 z M 45.189453 1247.5879 A 6.6141731 6.6141731 0 0 1 51.804688 1254.2031 A 6.6141731 6.6141731 0 0 1 45.189453 1260.8164 A 6.6141731 6.6141731 0 0 1 38.576172 1254.2031 A 6.6141731 6.6141731 0 0 1 45.189453 1247.5879 z M 873.21094 1247.5879 A 6.6141731 6.6141731 0 0 1 879.82617 1254.2031 A 6.6141731 6.6141731 0 0 1 873.21094 1260.8164 A 6.6141731 6.6141731 0 0 1 866.59766 1254.2031 A 6.6141731 6.6141731 0 0 1 873.21094 1247.5879 z M 54 1276.8594 A 4.5354331 4.5354331 0 0 1 58.537109 1281.3945 A 4.5354331 4.5354331 0 0 1 54 1285.9297 A 4.5354331 4.5354331 0 0 1 49.464844 1281.3945 A 4.5354331 4.5354331 0 0 1 54 1276.8594 z M 315.00781 1276.8594 A 4.5354331 4.5354331 0 0 1 319.54297 1281.3945 A 4.5354331 4.5354331 0 0 1 315.00781 1285.9297 A 4.5354331 4.5354331 0 0 1 310.47266 1281.3945 A 4.5354331 4.5354331 0 0 1 315.00781 1276.8594 z M 603.01562 1276.8594 A 4.5354331 4.5354331 0 0 1 607.55078 1281.3945 A 4.5354331 4.5354331 0 0 1 603.01562 1285.9297 A 4.5354331 4.5354331 0 0 1 598.47852 1281.3945 A 4.5354331 4.5354331 0 0 1 603.01562 1276.8594 z M 864.02148 1276.8594 A 4.5354331 4.5354331 0 0 1 868.55664 1281.3945 A 4.5354331 4.5354331 0 0 1 864.02148 1285.9297 A 4.5354331 4.5354331 0 0 1 859.48633 1281.3945 A 4.5354331 4.5354331 0 0 1 864.02148 1276.8594 z M 866.36719 1362.3945 C 870.04198 1362.3945 873.02148 1366.4238 873.02148 1371.3945 L 873.02148 1425.3965 C 873.02148 1428.6119 871.75402 1431.5816 869.69531 1433.1895 C 867.63664 1434.7972 865.09969 1434.7972 863.04102 1433.1895 C 860.98231 1431.5816 859.71484 1428.6119 859.71484 1425.3965 L 859.71484 1371.3945 C 859.71484 1366.4238 862.69243 1362.3945 866.36719 1362.3945 z M 54 1510.8652 A 4.5354331 4.5354331 0 0 1 58.537109 1515.4004 A 4.5354331 4.5354331 0 0 1 54 1519.9355 A 4.5354331 4.5354331 0 0 1 49.464844 1515.4004 A 4.5354331 4.5354331 0 0 1 54 1510.8652 z M 315.00781 1510.8652 A 4.5354331 4.5354331 0 0 1 319.54297 1515.4004 A 4.5354331 4.5354331 0 0 1 315.00781 1519.9355 A 4.5354331 4.5354331 0 0 1 310.47266 1515.4004 A 4.5354331 4.5354331 0 0 1 315.00781 1510.8652 z M 603.01562 1510.8652 A 4.5354331 4.5354331 0 0 1 607.55078 1515.4004 A 4.5354331 4.5354331 0 0 1 603.01562 1519.9355 A 4.5354331 4.5354331 0 0 1 598.47852 1515.4004 A 4.5354331 4.5354331 0 0 1 603.01562 1510.8652 z M 864.02148 1510.8652 A 4.5354331 4.5354331 0 0 1 868.55664 1515.4004 A 4.5354331 4.5354331 0 0 1 864.02148 1519.9355 A 4.5354331 4.5354331 0 0 1 859.48633 1515.4004 A 4.5354331 4.5354331 0 0 1 864.02148 1510.8652 z M 45.189453 1535.5957 A 6.6141731 6.6141731 0 0 1 51.804688 1542.2129 A 6.6141731 6.6141731 0 0 1 45.189453 1548.8262 A 6.6141731 6.6141731 0 0 1 38.576172 1542.2129 A 6.6141731 6.6141731 0 0 1 45.189453 1535.5957 z M 873.02148 1535.7852 A 6.6141731 6.6141731 0 0 1 879.63672 1542.4023 A 6.6141731 6.6141731 0 0 1 873.02148 1549.0156 A 6.6141731 6.6141731 0 0 1 866.4082 1542.4023 A 6.6141731 6.6141731 0 0 1 873.02148 1535.7852 z "
     transform="scale(0.26458333)"
     id="path5226" />
  <g
     id="g1538" />
  <path
     style="opacity:1;vector-effect:none;fill:#005c48;fill-opacity:0.42352941;fill-rule:nonzero;stroke:#ff0000;stroke-width:0.37795275;stroke-linecap:butt;stroke-linejoin:miter;stroke-miterlimit:4;stroke-dasharray:none;stroke-dashoffset:0;stroke-opacity:1;paint-order:markers fill stroke"
     d="M 34.75 552.18555 C 30.562283 552.18555 27.189453 555.55838 27.189453 559.74609 L 27.189453 868.63477 C 27.189453 872.8226 30.562283 876.19531 34.75 876.19531 L 883.65234 876.19531 C 887.84006 876.19531 891.21289 872.8226 891.21289 868.63477 L 891.21289 559.74609 C 891.21289 555.55838 887.84006 552.18555 883.65234 552.18555 L 34.75 552.18555 z M 45.191406 563.57227 A 6.6141729 6.6141729 0 0 1 51.804688 570.1875 A 6.6141729 6.6141729 0 0 1 45.191406 576.80078 A 6.6141729 6.6141729 0 0 1 38.576172 570.1875 A 6.6141729 6.6141729 0 0 1 45.191406 563.57227 z M 873.21094 563.57227 A 6.6141729 6.6141729 0 0 1 879.82617 570.1875 A 6.6141729 6.6141729 0 0 1 873.21094 576.80078 A 6.6141729 6.6141729 0 0 1 866.59766 570.1875 A 6.6141729 6.6141729 0 0 1 873.21094 563.57227 z M 63.191406 606.1875 L 855.21094 606.1875 L 855.21094 678.18945 L 837.48242 678.18945 L 837.21289 750.19141 L 711.20898 750.19141 L 711.20898 822.19336 L 63.191406 822.19336 L 63.191406 750.19141 L 81.191406 750.19141 L 81.191406 678.18945 L 63.191406 678.18945 L 63.191406 606.1875 z M 866.46289 678.37891 C 870.19003 678.37891 873.21094 682.21877 873.21094 687.18945 L 873.21094 741.19141 C 873.21094 744.4068 871.92593 747.37863 869.83789 748.98633 C 867.74985 750.59403 865.17589 750.59403 863.08789 748.98633 C 860.99985 747.37863 859.71484 744.4068 859.71484 741.19141 L 859.71484 687.18945 C 859.71484 682.21877 862.73571 678.37891 866.46289 678.37891 z M 45.191406 851.58008 A 6.6141729 6.6141729 0 0 1 51.804688 858.19336 A 6.6141729 6.6141729 0 0 1 45.191406 864.80859 A 6.6141729 6.6141729 0 0 1 38.576172 858.19336 A 6.6141729 6.6141729 0 0 1 45.191406 851.58008 z M 873.21094 851.58008 A 6.6141729 6.6141729 0 0 1 879.82617 858.19336 A 6.6141729 6.6141729 0 0 1 873.21094 864.80859 A 6.6141729 6.6141729 0 0 1 866.59766 858.19336 A 6.6141729 6.6141729 0 0 1 873.21094 851.58008 z "
     transform="scale(0.26458333)"
     id="path5197" />
  <path
     style="fill:#005c48;fill-opacity:0.42352941;stroke:#ff0000;stroke-width:0.1;stroke-linecap:butt;stroke-linejoin:round;stroke-miterlimit:4;stroke-dasharray:none;stroke-opacity:1;paint-order:markers stroke fill"
     d="m 8.1938701,31.796949 c -0.33307,0 -0.66623,-2e-5 -0.83302,0.16691 -0.16681,0.16693 -0.16692,0.49996 -0.16692,0.83303 v 17.05012 c 0,0.3336 1.1e-4,0.66687 0.16692,0.83354 0.16679,0.16667 0.49995,0.1664 0.83302,0.1664 H 26.41188 c 18.21807,0 18.55169,0 18.71824,-0.1664 0.16653,-0.16641 0.1664,-0.49994 0.1664,-0.83354 v -17.05012 c 0,-0.33307 1.3e-4,-0.66636 -0.1664,-0.83303 -0.16655,-0.16666 -0.49996,-0.16691 -0.83354,-0.16691 z m 1.54047,1.39164 a 1.15,1.15 0 0 1 1.1497999,1.1498 1.15,1.15 0 0 1 -1.1497999,1.15032 1.15,1.15 0 0 1 -1.1498,-1.15032 1.15,1.15 0 0 1 1.1498,-1.1498 z m 0,13.96969 a 1.15,1.15 0 0 1 1.1497999,1.15032 1.15,1.15 0 0 1 -1.1497999,1.1498 1.15,1.15 0 0 1 -1.1498,-1.1498 1.15,1.15 0 0 1 1.1498,-1.15032 z"
     id="path60932-7-3-6-2-9-7-7-4"
     inkscape:connector-curvature="0" />
  <path
     style="opacity:1;vector-effect:none;fill:#005c48;fill-opacity:0.42352941;fill-rule:nonzero;stroke:#ff0000;stroke-width:0.1;stroke-linecap:butt;stroke-linejoin:miter;stroke-miterlimit:4;stroke-dasharray:none;stroke-dashoffset:0;stroke-opacity:1;paint-order:markers fill stroke"
     d="M 9.193808,236.58922 C 8.0858087,236.5879 7.19393,237.4811 7.19393,238.5891 v 81.72731 c 0,1.108 0.8918779,1.99988 1.999878,1.99988 H 233.79973 c 1.108,0 1.99988,-0.89188 1.99988,-1.99988 l -0.0491,-12.23801 -3.57291,0.061 -0.002,4.70204 c -5.3e-4,0.6567 -0.53289,1.18853 -1.18959,1.18907 H 11.906304 c -0.656696,-5.3e-4 -1.189057,-0.53237 -1.189592,-1.18907 v -66.6781 c 5.29e-4,-0.65669 0.532899,-1.18854 1.189592,-1.18908 l 41.673425,-10e-4 v -2.38074 h 2.38125 v -3.57239 h -2.38125 v -2.38125 z m 2.713013,3.06235 a 1.7499999,1.7499999 0 0 1 1.749763,1.74976 1.7499999,1.7499999 0 0 1 -1.749763,1.75028 1.7499999,1.7499999 0 0 1 -1.750281,-1.75028 1.7499999,1.7499999 0 0 1 1.750281,-1.74976 z m 0,76.20206 a 1.7499999,1.7499999 0 0 1 1.749763,1.74977 1.7499999,1.7499999 0 0 1 -1.749763,1.75028 1.7499999,1.7499999 0 0 1 -1.750281,-1.75028 1.7499999,1.7499999 0 0 1 1.750281,-1.74977 z m 219.080159,0 a 1.7499999,1.7499999 0 0 1 1.75029,1.74977 1.7499999,1.7499999 0 0 1 -1.75029,1.75028 1.7499999,1.7499999 0 0 1 -1.74976,-1.75028 1.7499999,1.7499999 0 0 1 1.74976,-1.74977 z"
     id="path4978"
     inkscape:connector-curvature="0" />
  <path
     style="opacity:1;vector-effect:none;fill:#005c48;fill-opacity:0.42352941;fill-rule:nonzero;stroke:#ff0000;stroke-width:0.1;stroke-linecap:butt;stroke-linejoin:miter;stroke-miterlimit:4;stroke-dasharray:none;stroke-dashoffset:0;stroke-opacity:1;paint-order:markers fill stroke"
     d="m 278.99484,285.88608 -174.26687,0.0496 h -5.953128 v 2.38125 h 2.381248 v 3.57239 h -2.381248 v 2.38125 l 177.406218,5.2e-4 c 0.65669,5.3e-4 1.18905,0.53238 1.18959,1.18907 l 0.003,42.86456 h 3.57188 l 0.0491,-50.43877 c 0.001,-1.108 -0.89188,-1.99988 -1.99988,-1.99988 z m -2.81275,3.06235 a 1.7499999,1.7499999 0 0 1 1.75029,1.74976 1.7499999,1.7499999 0 0 1 -1.75029,1.75028 1.7499999,1.7499999 0 0 1 -1.74976,-1.75028 1.7499999,1.7499999 0 0 1 1.74976,-1.74976 z"
     id="path4974"
     inkscape:connector-curvature="0" />
  <path
     inkscape:connector-curvature="0"
     style="opacity:1;vector-effect:none;fill:#005c48;fill-opacity:0.42352941;fill-rule:nonzero;stroke:#ff0000;stroke-width:0.1;stroke-linecap:butt;stroke-linejoin:miter;stroke-miterlimit:4;stroke-dasharray:none;stroke-dashoffset:0;stroke-opacity:1;paint-order:markers fill stroke"
     d="m 288.90134,356.94384 c 1.108,10e-4 1.99988,-0.89188 1.99988,-1.99987 v -81.72732 c 0,-1.108 -0.89188,-1.99987 -1.99988,-1.99987 H 64.295424 c -1.10801,0 -1.99988,0.89187 -1.99988,1.99987 l 0.0491,12.23802 3.57291,-0.061 0.002,-4.70204 c 5.3e-4,-0.6567 0.53289,-1.18854 1.18959,-1.18908 H 286.18885 c 0.65669,5.3e-4 1.18906,0.53238 1.18959,1.18908 v 66.6781 c -5.3e-4,0.65669 -0.5329,1.18853 -1.18959,1.18907 l -41.67342,10e-4 v 2.38074 h -2.38125 v 3.57236 h 2.38125 v 2.38125 z m -2.71301,-3.06234 a 1.7499999,1.7499999 0 0 1 -1.74976,-1.74977 1.7499999,1.7499999 0 0 1 1.74976,-1.75028 1.7499999,1.7499999 0 0 1 1.75028,1.75028 1.7499999,1.7499999 0 0 1 -1.75028,1.74977 z m 0,-76.20207 a 1.7499999,1.7499999 0 0 1 -1.74976,-1.74976 1.7499999,1.7499999 0 0 1 1.74976,-1.75029 1.7499999,1.7499999 0 0 1 1.75028,1.75029 1.7499999,1.7499999 0 0 1 -1.75028,1.74976 z m -219.080166,0 a 1.7499999,1.7499999 0 0 1 -1.75028,-1.74976 1.7499999,1.7499999 0 0 1 1.75028,-1.75029 1.7499999,1.7499999 0 0 1 1.74977,1.75029 1.7499999,1.7499999 0 0 1 -1.74977,1.74976 z"
     id="path4978-1" />
  <path
     style="opacity:1;vector-effect:none;fill:#005c48;fill-opacity:0.42352941;fill-rule:nonzero;stroke:#ff0000;stroke-width:0.1;stroke-linecap:butt;stroke-linejoin:miter;stroke-miterlimit:4;stroke-dasharray:none;stroke-dashoffset:0;stroke-opacity:1;paint-order:markers fill stroke"
     d="m 19.250644,308.12776 174.266876,-0.0496 h 5.95313 v -2.38125 h -2.38125 v -3.57239 h 2.38125 v -2.38125 l -177.406226,-5.3e-4 c -0.65669,-5.3e-4 -1.18905,-0.53238 -1.18959,-1.18907 l -0.003,-42.86457 h -3.57188 l -0.0491,50.43879 c -0.001,1.108 0.89188,1.99988 1.99988,1.99988 z m 2.81275,-3.06235 a 1.7499999,1.7499999 0 0 1 -1.75029,-1.74976 1.7499999,1.7499999 0 0 1 1.75029,-1.75028 1.7499999,1.7499999 0 0 1 1.74976,1.75028 1.7499999,1.7499999 0 0 1 -1.74976,1.74976 z"
     id="path4974-6"
     inkscape:connector-curvature="0" />
  <path
     style="opacity:1;vector-effect:none;fill:#005c48;fill-opacity:0.42352941;fill-rule:nonzero;stroke:#ff0000;stroke-width:0.1;stroke-linecap:butt;stroke-linejoin:miter;stroke-miterlimit:4;stroke-dasharray:none;stroke-dashoffset:0;stroke-opacity:1;paint-order:markers fill stroke"
     d="M 278.99489,251.7846 104.72802,251.735 h -5.953126 v -2.38125 h 2.381246 v -3.57239 h -2.381246 v -2.38125 l 177.406226,-5.3e-4 c 0.6567,-5.3e-4 1.18904,-0.53238 1.1896,-1.18907 l 0.003,-42.86456 h 3.57187 l 0.0491,50.43877 c 0,1.108 -0.89189,1.99988 -1.99988,1.99988 z m -2.81273,-3.06235 a 1.7499999,1.7499999 0 0 0 1.75027,-1.74976 1.7499999,1.7499999 0 0 0 -1.75027,-1.75028 1.7499999,1.7499999 0 0 0 -1.74977,1.75028 1.7499999,1.7499999 0 0 0 1.74977,1.74976 z"
     id="path4974-4"
     inkscape:connector-curvature="0" />
  <path
     inkscape:connector-curvature="0"
     style="opacity:1;vector-effect:none;fill:#005c48;fill-opacity:0.42352941;fill-rule:nonzero;stroke:#ff0000;stroke-width:0.1;stroke-linecap:butt;stroke-linejoin:miter;stroke-miterlimit:4;stroke-dasharray:none;stroke-dashoffset:0;stroke-opacity:1;paint-order:markers fill stroke"
     d="m 288.90139,180.72684 c 1.108,-0.001 1.99988,0.89187 1.99988,1.99986 v 81.72733 c 0,1.108 -0.89188,1.99987 -1.99988,1.99987 H 64.295478 c -1.10801,0 -1.99988,-0.89187 -1.99988,-1.99987 l 0.0491,-12.23802 3.57291,0.061 0.002,4.70204 c 5.3e-4,0.6567 0.53289,1.18854 1.18959,1.18908 H 286.18881 c 0.65669,-5.3e-4 1.18906,-0.53238 1.18959,-1.18908 v -66.67811 c 0,-0.65669 -0.5329,-1.18852 -1.18959,-1.18906 l -41.67342,-0.001 v -2.38074 h -2.38125 v -3.57236 h 2.38125 v -2.38125 z m -2.71301,3.06234 a 1.7499999,1.7499999 0 0 0 -1.74974,1.74976 1.7499999,1.7499999 0 0 0 1.74974,1.75028 1.7499999,1.7499999 0 0 0 1.7503,-1.75028 1.7499999,1.7499999 0 0 0 -1.7503,-1.74976 z m 0,76.20207 a 1.7499999,1.7499999 0 0 0 -1.74974,1.74976 1.7499999,1.7499999 0 0 0 1.74974,1.75029 1.7499999,1.7499999 0 0 0 1.7503,-1.75029 1.7499999,1.7499999 0 0 0 -1.7503,-1.74976 z m -219.080162,0 a 1.7499999,1.7499999 0 0 0 -1.75028,1.74976 1.7499999,1.7499999 0 0 0 1.75028,1.75029 1.7499999,1.7499999 0 0 0 1.74977,-1.75029 1.7499999,1.7499999 0 0 0 -1.74977,-1.74976 z"
     id="path4978-1-2" />
  <path
     style="opacity:1;vector-effect:none;fill:#005c48;fill-opacity:0.42352941;fill-rule:nonzero;stroke:#ff0000;stroke-width:0.1;stroke-linecap:butt;stroke-linejoin:miter;stroke-miterlimit:4;stroke-dasharray:none;stroke-dashoffset:0;stroke-opacity:1;paint-order:markers fill stroke"
     d="m 9.193808,55.609656 c -1.107999,-0.0013 -1.999878,0.89188 -1.999878,1.99988 v 81.727314 c 0,1.108 0.891878,1.99988 1.999878,1.99988 H 233.79973 c 1.108,0 1.99988,-0.89188 1.99988,-1.99988 l -0.0491,-12.23801 -3.57291,0.061 -0.002,4.70204 c -5.3e-4,0.6567 -0.53289,1.18853 -1.18959,1.18907 H 11.906304 c -0.656696,-5.3e-4 -1.189057,-0.53237 -1.189592,-1.18907 V 65.183776 c 5.29e-4,-0.65669 0.532899,-1.18854 1.189592,-1.18908 l 41.673424,-10e-4 v -2.38073 h 2.38125 v -3.57239 h -2.38125 v -2.38125 z m 2.713013,3.06235 a 1.7499999,1.7499999 0 0 1 1.749763,1.74976 1.7499999,1.7499999 0 0 1 -1.749763,1.75028 1.7499999,1.7499999 0 0 1 -1.750281,-1.75028 1.7499999,1.7499999 0 0 1 1.750281,-1.74976 z m 0,76.202064 a 1.7499999,1.7499999 0 0 1 1.749763,1.74977 1.7499999,1.7499999 0 0 1 -1.749763,1.75028 1.7499999,1.7499999 0 0 1 -1.750281,-1.75028 1.7499999,1.7499999 0 0 1 1.750281,-1.74977 z m 219.080159,0 a 1.7499999,1.7499999 0 0 1 1.75029,1.74977 1.7499999,1.7499999 0 0 1 -1.75029,1.75028 1.7499999,1.7499999 0 0 1 -1.74976,-1.75028 1.7499999,1.7499999 0 0 1 1.74976,-1.74977 z"
     id="path4978-5"
     inkscape:connector-curvature="0" />
  <path
     style="opacity:1;vector-effect:none;fill:#005c48;fill-opacity:0.42352941;fill-rule:nonzero;stroke:#ff0000;stroke-width:0.1;stroke-linecap:butt;stroke-linejoin:miter;stroke-miterlimit:4;stroke-dasharray:none;stroke-dashoffset:0;stroke-opacity:1;paint-order:markers fill stroke"
     d="m 278.99484,104.90652 -174.26687,0.0496 h -5.953127 v 2.38125 h 2.381247 v 3.57239 h -2.381247 v 2.38125 l 177.406227,5.3e-4 c 0.65667,5.3e-4 1.18904,0.53238 1.18957,1.18907 l 0.003,42.86456 h 3.57188 l 0.0491,-50.43877 c 0,-1.108 -0.89188,-1.99988 -1.99988,-1.99988 z m -2.81273,3.06235 a 1.7499999,1.7499999 0 0 1 1.75027,1.74976 1.7499999,1.7499999 0 0 1 -1.75027,1.75028 1.7499999,1.7499999 0 0 1 -1.74977,-1.75028 1.7499999,1.7499999 0 0 1 1.74977,-1.74976 z"
     id="path4974-5"
     inkscape:connector-curvature="0" />
  <path
     inkscape:connector-curvature="0"
     style="opacity:1;vector-effect:none;fill:#005c48;fill-opacity:0.42352941;fill-rule:nonzero;stroke:#ff0000;stroke-width:0.1;stroke-linecap:butt;stroke-linejoin:miter;stroke-miterlimit:4;stroke-dasharray:none;stroke-dashoffset:0;stroke-opacity:1;paint-order:markers fill stroke"
     d="m 288.90134,175.96428 c 1.108,0.001 1.99988,-0.89188 1.99988,-1.99987 V 92.237086 c 0,-1.107999 -0.89188,-1.999869 -1.99988,-1.999869 H 64.295425 c -1.108012,0 -1.99988,0.89187 -1.99988,1.999869 l 0.0491,12.238024 3.572909,-0.061 0.0021,-4.702043 c 5.29e-4,-0.656701 0.532892,-1.18854 1.189591,-1.189079 H 286.18886 c 0.65669,5.29e-4 1.18906,0.532378 1.18959,1.189079 v 66.678103 c 0,0.65669 -0.5329,1.18853 -1.18959,1.18907 l -41.67343,0.001 v 2.38074 h -2.38125 v 3.57236 h 2.38125 v 2.38125 z m -2.71301,-3.06234 a 1.7499999,1.7499999 0 0 1 -1.74977,-1.74977 1.7499999,1.7499999 0 0 1 1.74977,-1.75028 1.7499999,1.7499999 0 0 1 1.75027,1.75028 1.7499999,1.7499999 0 0 1 -1.75027,1.74977 z m 0,-76.202074 a 1.7499999,1.7499999 0 0 1 -1.74977,-1.749759 1.7499999,1.7499999 0 0 1 1.74977,-1.75029 1.7499999,1.7499999 0 0 1 1.75027,1.75029 1.7499999,1.7499999 0 0 1 -1.75027,1.749759 z m -219.080165,0 a 1.7499999,1.7499999 0 0 1 -1.750279,-1.749759 1.7499999,1.7499999 0 0 1 1.750279,-1.75029 1.7499999,1.7499999 0 0 1 1.749769,1.75029 1.7499999,1.7499999 0 0 1 -1.749769,1.749759 z"
     id="path4978-1-20" />
  <path
     style="opacity:1;vector-effect:none;fill:#005c48;fill-opacity:0.42352941;fill-rule:nonzero;stroke:#ff0000;stroke-width:0.1;stroke-linecap:butt;stroke-linejoin:miter;stroke-miterlimit:4;stroke-dasharray:none;stroke-dashoffset:0;stroke-opacity:1;paint-order:markers fill stroke"
     d="m 19.250644,127.1482 174.266876,-0.0496 h 5.95313 v -2.38125 h -2.38125 v -3.57239 h 2.38125 v -2.38125 l -177.406226,-5.3e-4 c -0.65669,-5.3e-4 -1.18905,-0.53238 -1.18959,-1.18907 l -0.003,-42.864573 h -3.57188 l -0.0491,50.438793 c -0.001,1.108 0.89188,1.99988 1.99988,1.99988 z m 2.81275,-3.06235 a 1.7499999,1.7499999 0 0 1 -1.75029,-1.74976 1.7499999,1.7499999 0 0 1 1.75029,-1.75028 1.7499999,1.7499999 0 0 1 1.74976,1.75028 1.7499999,1.7499999 0 0 1 -1.74976,1.74976 z"
     id="path4974-6-9"
     inkscape:connector-curvature="0" />
  <path
     style="fill:#005c48;fill-opacity:0.42352941;stroke:#ff0000;stroke-width:0.1;stroke-linecap:butt;stroke-linejoin:round;stroke-miterlimit:4;stroke-dasharray:none;stroke-opacity:1;paint-order:markers stroke fill"
     d="m 8.14387,6.652479 c -0.33307,0 -0.66623,-2e-5 -0.83302,0.16691 -0.16681,0.16693 -0.16692,0.49996 -0.16692,0.83303 v 17.05012 c 0,0.3336 1.1e-4,0.66687 0.16692,0.83354 0.16679,0.16667 0.49995,0.1664 0.83302,0.1664 h 18.21801 c 18.218071,0 18.551689,0 18.718239,-0.1664 0.166532,-0.16641 0.166402,-0.49994 0.166402,-0.83354 V 7.652419 c 0,-0.33307 1.3e-4,-0.66636 -0.166402,-0.83303 -0.16655,-0.16666 -0.499959,-0.16691 -0.833538,-0.16691 z m 1.54047,1.39164 a 1.15,1.15 0 0 1 1.1498,1.1498 1.15,1.15 0 0 1 -1.1498,1.15032 1.15,1.15 0 0 1 -1.1498,-1.15032 1.15,1.15 0 0 1 1.1498,-1.1498 z m 0,13.96969 a 1.15,1.15 0 0 1 1.1498,1.15032 1.15,1.15 0 0 1 -1.1498,1.1498 1.15,1.15 0 0 1 -1.1498,-1.1498 1.15,1.15 0 0 1 1.1498,-1.15032 z"
     id="path60932-7-3-6-2-9-7-7-4-5"
     inkscape:connector-curvature="0" />
</svg>
