<?xml version="1.0" encoding="UTF-8" standalone="no"?>
<!-- Generated by SVGo -->

<svg
   xmlns:dc="http://purl.org/dc/elements/1.1/"
   xmlns:cc="http://creativecommons.org/ns#"
   xmlns:rdf="http://www.w3.org/1999/02/22-rdf-syntax-ns#"
   xmlns:svg="http://www.w3.org/2000/svg"
   xmlns="http://www.w3.org/2000/svg"
   xmlns:sodipodi="http://sodipodi.sourceforge.net/DTD/sodipodi-0.dtd"
   xmlns:inkscape="http://www.inkscape.org/namespaces/inkscape"
   width="297mm"
   height="420mm"
   viewBox="0 0 296.99999 420.00001"
   version="1.1"
   id="svg64"
   sodipodi:docname="Stonehenge30_case_sandwitch.svg"
   inkscape:version="0.92.3 (2405546, 2018-03-11)">
  <metadata
     id="metadata70">
    <rdf:RDF>
      <cc:Work
         rdf:about="">
        <dc:format>image/svg+xml</dc:format>
        <dc:type
           rdf:resource="http://purl.org/dc/dcmitype/StillImage" />
        <dc:title />
      </cc:Work>
    </rdf:RDF>
  </metadata>
  <defs
     id="defs68" />
  <sodipodi:namedview
     pagecolor="#ffffff"
     bordercolor="#666666"
     borderopacity="1"
     objecttolerance="10"
     gridtolerance="10"
     guidetolerance="10"
     inkscape:pageopacity="0"
     inkscape:pageshadow="2"
     inkscape:window-width="3840"
     inkscape:window-height="2066"
     id="namedview66"
     showgrid="true"
     inkscape:snap-grids="true"
     showguides="true"
     inkscape:snap-smooth-nodes="true"
     inkscape:measure-start="0,0"
     inkscape:measure-end="0,0"
     inkscape:snap-page="true"
     inkscape:zoom="0.8510267"
     inkscape:cx="1487.4592"
     inkscape:cy="699.18247"
     inkscape:window-x="3829"
     inkscape:window-y="-11"
     inkscape:window-maximized="1"
     inkscape:current-layer="svg64"
     inkscape:snap-object-midpoints="true"
     inkscape:snap-intersection-paths="true"
     inkscape:snap-bbox="true"
     inkscape:bbox-nodes="true"
     inkscape:object-nodes="true"
     inkscape:snap-nodes="true">
    <inkscape:grid
       type="xygrid"
       id="grid880"
       units="mm"
       spacingx="3"
       spacingy="3"
       enabled="false" />
    <inkscape:grid
       type="xygrid"
       id="grid948"
       units="mm"
       spacingx="2.38131"
       spacingy="2.38131" />
  </sodipodi:namedview>
  <path
     style="fill:none;fill-opacity:1;stroke:#ff0000;stroke-width:0.1;stroke-miterlimit:4;stroke-dasharray:none;stroke-opacity:1"
     d="m 9.24393,131.66594 c -1.10801,0 -1.9974,0.89188 -2.0004,1.99988 l -0.0496,17.19585 c 0,0.63156 0.25053,1.23704 0.69711,1.68363 0.44659,0.44656 1.05258,0.6976 1.68414,0.69762 1.31516,0 2.38125,1.06609 2.38125,2.38125 v 19.05051 c 1e-5,1.31519 -1.06608,2.38127 -2.38125,2.38125 -1.31516,0 -2.38125,1.06611 -2.38125,2.38125 l 0.0496,17.00051 c 0.003,1.10802 0.89239,1.99956 2.0004,1.99988 l 171.78589,0.0506 c 1.28347,1.6e-4 2.32321,-1.06638 2.31821,-2.38176 l 0.0625,-19.05052 c 2e-5,-1.31514 1.06611,-2.38125 2.38125,-2.38125 12.84126,-0.0101 33.74265,-0.0455 33.74265,-0.0455 1.108,-0.001 2.00888,-0.89194 1.99988,-1.99988 -0.0472,-5.66825 -0.0137,-11.33679 -0.0227,-17.00517 0,-1.31516 1.06609,-2.38125 2.38125,-2.38125 1.31516,-2e-5 2.38124,-1.06608 2.38125,-2.38125 v -17.19585 c 0,-1.108 -0.85054,-1.99988 -1.95854,-1.99988 z m 0.33124,1.32654 a 1.2,1.2 0 0 1 1.19993,1.19991 1.2,1.2 0 0 1 -1.19993,1.19994 1.2,1.2 0 0 1 -1.19993,-1.19994 1.2,1.2 0 0 1 1.19993,-1.19991 z m 69.0578,0 a 1.2,1.2 0 0 1 1.19993,1.19991 1.2,1.2 0 0 1 -1.19993,1.19994 1.2,1.2 0 0 1 -1.19993,-1.19994 1.2,1.2 0 0 1 1.19993,-1.19991 z m 76.20207,0 a 1.2,1.2 0 0 1 1.19993,1.19991 1.2,1.2 0 0 1 -1.19993,1.19994 1.2,1.2 0 0 1 -1.19993,-1.19994 1.2,1.2 0 0 1 1.19993,-1.19991 z m 69.0578,0 a 1.2,1.2 0 0 1 1.19993,1.19991 1.2,1.2 0 0 1 -1.19993,1.19994 1.2,1.2 0 0 1 -1.19993,-1.19994 1.2,1.2 0 0 1 1.19993,-1.19991 z m -209.36293,6.05957 h 13.99966 v 13.99966 H 14.52991 Z m 19.05,0 h 13.99966 v 13.99966 H 33.57991 Z m 19.05,0 h 13.99966 v 13.99966 H 52.62991 Z m 19.05,0 h 13.99966 v 13.99966 H 71.67991 Z m 19.05,0 h 13.99966 v 13.99966 H 90.72991 Z m 19.05,0 h 13.99966 v 13.99966 h -13.99966 z m 19.05,0 h 13.99966 v 13.99966 h -13.99966 z m 19.05,0 h 13.99966 v 13.99966 h -13.99966 z m 19.05,0 h 13.99966 v 13.99966 h -13.99966 z m 19.05,0 h 13.99966 v 13.99966 h -13.99966 z m 19.05,0 h 13.99966 v 13.99966 h -13.99966 z m -185.73802,19.05 h 13.99966 v 13.99966 H 19.29189 Z m 19.05,0 h 13.99966 v 13.99966 H 38.34189 Z m 19.05,0 h 13.99966 v 13.99966 H 57.39189 Z m 19.05,0 h 13.99966 v 13.99966 H 76.44189 Z m 19.05,0 h 13.99967 v 13.99966 H 95.49189 Z m 28.575,0 h 13.99966 v 13.99966 h -13.99966 z m 19.05,0 h 13.99966 v 13.99966 h -13.99966 z m 19.05,0 h 13.99966 v 13.99966 h -13.99966 z m 19.05,0 h 13.99966 v 13.99966 h -13.99966 z m 19.05,0 h 13.99966 v 13.99966 h -13.99966 z m -185.73698,19.05 h 13.99966 v 13.99966 H 14.52991 Z m 19.05,0 h 13.99966 v 13.99966 H 33.57991 Z m 19.05,0 h 13.99966 v 13.99966 H 52.62991 Z m 19.05,0 h 13.99966 v 13.99966 H 71.67991 Z m 19.05,0 h 13.99966 v 13.99966 H 90.72991 Z m 19.05,0 h 13.99966 v 13.99966 h -13.99966 z m 19.05,0 h 13.99966 v 13.99966 h -13.99966 z m 19.05,0 h 13.99966 v 13.99966 h -13.99966 z m 19.05,0 h 13.99966 v 13.99966 H 166.92991 Z M 9.57517,194.90652 a 1.2,1.2 0 0 1 1.19993,1.19993 1.2,1.2 0 0 1 -1.19993,1.19992 1.2,1.2 0 0 1 -1.19993,-1.19992 1.2,1.2 0 0 1 1.19993,-1.19993 z m 69.0578,0 a 1.2,1.2 0 0 1 1.19993,1.19993 1.2,1.2 0 0 1 -1.19993,1.19992 1.2,1.2 0 0 1 -1.19993,-1.19992 1.2,1.2 0 0 1 1.19993,-1.19993 z m 76.20207,0 a 1.2,1.2 0 0 1 1.19993,1.19993 1.2,1.2 0 0 1 -1.19993,1.19992 1.2,1.2 0 0 1 -1.19993,-1.19992 1.2,1.2 0 0 1 1.19993,-1.19993 z"
     id="polygon4"
     inkscape:connector-curvature="0" />
  <path
     style="opacity:1;vector-effect:none;fill:none;fill-opacity:1;fill-rule:nonzero;stroke:#ff0000;stroke-width:0.1;stroke-linecap:butt;stroke-linejoin:miter;stroke-miterlimit:4;stroke-dasharray:none;stroke-dashoffset:0;stroke-opacity:1;paint-order:markers fill stroke"
     d="m 9.2439379,346.03445 c -1.1080002,0 -1.9966562,0.89188 -1.999878,1.99988 l -0.050126,17.19585 c 0.072438,1.35226 1.152797,2.3627 2.3812499,2.38125 1.3151612,0 2.3817662,1.06608 2.3817662,2.38125 v 19.0505 c 0,1.31517 -1.066605,2.38125 -2.3817662,2.38125 -1.3151611,0 -2.3812499,1.06611 -2.3812499,2.38125 l 0.050126,17.00051 c 0.00326,1.10802 0.8918778,1.99988 1.999878,1.99988 H 224.31608 c 1.108,0 2.00288,-0.89186 1.99988,-1.99988 l -0.0413,-17.00051 c 10e-6,-1.31514 -1.06609,-2.38122 -2.38125,-2.38125 -0.63156,0 -1.23756,-0.25053 -1.68414,-0.6971 -0.44658,-0.44659 -0.69712,-1.05256 -0.69711,-1.68415 v -19.0505 c -1e-5,-1.31517 1.06609,-2.38125 2.38125,-2.38125 1.31516,0 2.38125,-1.06609 2.38125,-2.38125 l 0.0413,-17.19585 c 0.003,-1.108 -0.89188,-1.99988 -1.99988,-1.99988 z m 0.3312458,1.32654 a 1.2,1.2 0 0 1 1.2004433,1.19991 1.2,1.2 0 0 1 -1.2004433,1.19994 1.2,1.2 0 0 1 -1.1999266,-1.19994 1.2,1.2 0 0 1 1.1999266,-1.19991 z m 69.0583153,0 a 1.2,1.2 0 0 1 1.199928,1.19991 1.2,1.2 0 0 1 -1.199928,1.19994 1.2,1.2 0 0 1 -1.199924,-1.19994 1.2,1.2 0 0 1 1.199924,-1.19991 z m 76.202071,0 a 1.2,1.2 0 0 1 1.19993,1.19991 1.2,1.2 0 0 1 -1.19993,1.19994 1.2,1.2 0 0 1 -1.20044,-1.19994 1.2,1.2 0 0 1 1.20044,-1.19991 z m 69.0578,0 a 1.2,1.2 0 0 1 1.19993,1.19991 1.2,1.2 0 0 1 -1.19993,1.19994 1.2,1.2 0 0 1 -1.19993,-1.19994 1.2,1.2 0 0 1 1.19993,-1.19991 z M 9.5751837,409.27502 a 1.2,1.2 0 0 1 1.2004433,1.19994 1.2,1.2 0 0 1 -1.2004433,1.19991 1.2,1.2 0 0 1 -1.1999266,-1.19991 1.2,1.2 0 0 1 1.1999266,-1.19994 z m 69.0583153,0 a 1.2,1.2 0 0 1 1.199928,1.19994 1.2,1.2 0 0 1 -1.199928,1.19991 1.2,1.2 0 0 1 -1.199924,-1.19991 1.2,1.2 0 0 1 1.199924,-1.19994 z m 76.202071,0 a 1.2,1.2 0 0 1 1.19993,1.19994 1.2,1.2 0 0 1 -1.19993,1.19991 1.2,1.2 0 0 1 -1.20044,-1.19991 1.2,1.2 0 0 1 1.20044,-1.19994 z m 69.0578,0 a 1.2,1.2 0 0 1 1.19993,1.19994 1.2,1.2 0 0 1 -1.19993,1.19991 1.2,1.2 0 0 1 -1.19993,-1.19991 1.2,1.2 0 0 1 1.19993,-1.19994 z"
     id="path882-5"
     inkscape:connector-curvature="0" />
  <g
     id="g1538" />
  <path
     style="opacity:1;vector-effect:none;fill:none;fill-opacity:1;fill-rule:nonzero;stroke:#ff0000;stroke-width:0.1;stroke-linecap:butt;stroke-linejoin:miter;stroke-miterlimit:4;stroke-dasharray:none;stroke-dashoffset:0;stroke-opacity:1;paint-order:markers fill stroke"
     d="m 9.193808,274.59461 c -1.1080001,0 -1.999878,0.89239 -1.999878,2.00039 v 62.77189 c 0.00326,1.108 0.8918779,1.99988 1.999878,1.99988 H 224.26595 c 1.108,0 2.00288,-0.89188 1.99988,-1.99988 -0.0528,-20.92407 -0.0357,-41.84785 0,-62.77189 0.003,-1.108 -0.89188,-2.00039 -1.99988,-2.00039 z m 0.3312459,1.32655 a 1.2,1.2 0 0 1 1.2004431,1.20044 1.2,1.2 0 0 1 -1.2004431,1.19991 1.2,1.2 0 0 1 -1.1999267,-1.19991 1.2,1.2 0 0 1 1.1999267,-1.20044 z m 69.0583151,0 a 1.2,1.2 0 0 1 1.199928,1.20044 1.2,1.2 0 0 1 -1.199928,1.19991 1.2,1.2 0 0 1 -1.199925,-1.19991 1.2,1.2 0 0 1 1.199925,-1.20044 z m 76.202061,0 a 1.2,1.2 0 0 1 1.19993,1.20044 1.2,1.2 0 0 1 -1.19993,1.19991 1.2,1.2 0 0 1 -1.20044,-1.19991 1.2,1.2 0 0 1 1.20044,-1.20044 z m 69.0578,0 a 1.2,1.2 0 0 1 1.19993,1.20044 1.2,1.2 0 0 1 -1.19993,1.19991 1.2,1.2 0 0 1 -1.19992,-1.19991 1.2,1.2 0 0 1 1.19992,-1.20044 z M 11.906821,279.50285 H 221.46198 v 19.0505 h -4.69066 l -0.0718,19.05053 h -33.33853 v 19.0505 H 11.906821 v -19.0505 h 4.762499 v -19.05053 h -4.762499 z m -2.3812504,11.76258 h 0.073897 c 0.029769,4e-4 0.042978,0.03 0.072347,0.031 -0.051488,-10e-4 -0.094531,-0.031 -0.146244,-0.031 z m -5.167e-4,46.57029 a 1.2,1.2 0 0 1 1.2004431,1.19991 1.2,1.2 0 0 1 -1.2004431,1.19994 1.2,1.2 0 0 1 -1.1999267,-1.19994 1.2,1.2 0 0 1 1.1999267,-1.19991 z m 69.0583151,0 a 1.2,1.2 0 0 1 1.199928,1.19991 1.2,1.2 0 0 1 -1.199928,1.19994 1.2,1.2 0 0 1 -1.199925,-1.19994 1.2,1.2 0 0 1 1.199925,-1.19991 z m 76.202061,0 a 1.2,1.2 0 0 1 1.19993,1.19991 1.2,1.2 0 0 1 -1.19993,1.19994 1.2,1.2 0 0 1 -1.20044,-1.19994 1.2,1.2 0 0 1 1.20044,-1.19991 z m 69.0578,0 a 1.2,1.2 0 0 1 1.19993,1.19991 1.2,1.2 0 0 1 -1.19993,1.19994 1.2,1.2 0 0 1 -1.19992,-1.19994 1.2,1.2 0 0 1 1.19992,-1.19991 z"
     id="path1586"
     inkscape:connector-curvature="0" />
  <path
     style="opacity:1;vector-effect:none;fill:none;fill-opacity:1;fill-rule:nonzero;stroke:#ff0000;stroke-width:0.1;stroke-linecap:butt;stroke-linejoin:miter;stroke-miterlimit:4;stroke-dasharray:none;stroke-dashoffset:0;stroke-opacity:1;paint-order:markers fill stroke"
     d="m 224.22459,269.92747 c 1.108,0 1.99666,-0.89187 1.99988,-1.99987 l 0.0501,-17.19585 a 2.38131,2.3813086 0 0 0 -1.19062,-2.06241 2.38131,2.3813086 0 0 0 -2.38177,0 2.38131,2.3813086 0 0 0 -1.19062,2.06241 l -0.0351,14.28698 -209.52003,10e-4 v -14.28801 c 0,-0.85076 -0.45384,-1.63703 -1.19062,-2.06241 -0.73678,-0.42538 -1.64447,-0.42538 -2.38125,0 -0.73678,0.42538 -1.19063,1.21167 -1.19063,2.06241 v 17.19585 c 0,1.108 0.85054,1.99987 1.95854,1.99987 z m -0.33124,-1.32653 a 1.2,1.2 0 0 1 -1.20044,-1.19993 1.2,1.2 0 0 1 1.20044,-1.19993 1.2,1.2 0 0 1 1.19993,1.19993 1.2,1.2 0 0 1 -1.19993,1.19993 z m -69.05832,0 a 1.2,1.2 0 0 1 -1.19993,-1.19993 1.2,1.2 0 0 1 1.19993,-1.19993 1.2,1.2 0 0 1 1.19992,1.19993 1.2,1.2 0 0 1 -1.19992,1.19993 z m -76.20206,0 a 1.2,1.2 0 0 1 -1.19992,-1.19993 1.2,1.2 0 0 1 1.19992,-1.19993 1.2,1.2 0 0 1 1.20045,1.19993 1.2,1.2 0 0 1 -1.20045,1.19993 z m -69.0578,0 a 1.2,1.2 0 0 1 -1.19992,-1.19993 1.2,1.2 0 0 1 1.19992,-1.19993 1.2,1.2 0 0 1 1.19993,1.19993 1.2,1.2 0 0 1 -1.19993,1.19993 z"
     id="path882-5-7-2-5-3"
     inkscape:connector-curvature="0" />
  <path
     style="opacity:1;vector-effect:none;fill:none;fill-opacity:1;fill-rule:nonzero;stroke:#ff0000;stroke-width:0.1;stroke-linecap:butt;stroke-linejoin:miter;stroke-miterlimit:4;stroke-dasharray:none;stroke-dashoffset:0;stroke-opacity:1;paint-order:markers fill stroke"
     d="m 233.36881,260.45231 a 2.38131,2.38131 0 0 0 2.38125,-2.38125 l -0.0501,-17.00052 c -0.003,-1.10799 -0.89187,-1.99956 -1.99987,-1.99988 l -214.649419,-0.0501 c -1.31516,1.1e-4 -2.38125,1.06609 -2.38125,2.38125 0,1.31516 1.0661,2.38125 2.38125,2.38125 H 230.98707 v 14.28801 a 2.38131,2.38131 0 0 0 2.38177,2.38125 z m 0,-17.8506 a 1.2,1.2 0 0 1 -1.20044,-1.19991 1.2,1.2 0 0 1 1.20044,-1.19994 1.2,1.2 0 0 1 1.19993,1.19994 1.2,1.2 0 0 1 -1.19993,1.19991 z m -69.05831,0 a 1.2,1.2 0 0 1 -1.19993,-1.19991 1.2,1.2 0 0 1 1.19993,-1.19994 1.2,1.2 0 0 1 1.19992,1.19994 1.2,1.2 0 0 1 -1.19992,1.19991 z m -76.202064,0 a 1.2,1.2 0 0 1 -1.19993,-1.19991 1.2,1.2 0 0 1 1.19993,-1.19994 1.2,1.2 0 0 1 1.20044,1.19994 1.2,1.2 0 0 1 -1.20044,1.19991 z m -69.057795,0 a 1.2,1.2 0 0 1 -1.19993,-1.19991 1.2,1.2 0 0 1 1.19993,-1.19994 1.2,1.2 0 0 1 1.19993,1.19994 1.2,1.2 0 0 1 -1.19993,1.19991 z"
     id="path882-5-2-91-5-6"
     inkscape:connector-curvature="0" />
  <path
     style="opacity:1;vector-effect:none;fill:none;fill-opacity:1;fill-rule:nonzero;stroke:#ff0000;stroke-width:0.1;stroke-linecap:butt;stroke-linejoin:miter;stroke-miterlimit:4;stroke-dasharray:none;stroke-dashoffset:0;stroke-opacity:1;paint-order:markers fill stroke"
     d="m 224.22459,234.20782 c 1.108,0 1.99666,-0.89187 1.99988,-1.99987 l 0.0501,-17.19585 a 2.38131,2.3813086 0 0 0 -1.19062,-2.06241 2.38131,2.3813086 0 0 0 -2.38177,0 2.38131,2.3813086 0 0 0 -1.19062,2.06241 l -0.0351,14.28698 -209.52003,0.001 v -14.28801 c 0,-0.85076 -0.45384,-1.63703 -1.190621,-2.06241 -0.736779,-0.42538 -1.644469,-0.42538 -2.381249,0 -0.73678,0.42538 -1.19063,1.21167 -1.19063,2.06241 v 17.19585 c 0,1.108 0.85054,1.99987 1.95854,1.99987 z m -0.33124,-1.32653 a 1.2,1.2 0 0 1 -1.20044,-1.19993 1.2,1.2 0 0 1 1.20044,-1.19993 1.2,1.2 0 0 1 1.19993,1.19993 1.2,1.2 0 0 1 -1.19993,1.19993 z m -69.05832,0 a 1.2,1.2 0 0 1 -1.19993,-1.19993 1.2,1.2 0 0 1 1.19993,-1.19993 1.2,1.2 0 0 1 1.19992,1.19993 1.2,1.2 0 0 1 -1.19992,1.19993 z m -76.202059,0 a 1.2,1.2 0 0 1 -1.19992,-1.19993 1.2,1.2 0 0 1 1.19992,-1.19993 1.2,1.2 0 0 1 1.200449,1.19993 1.2,1.2 0 0 1 -1.200449,1.19993 z m -69.057801,0 a 1.2,1.2 0 0 1 -1.19992,-1.19993 1.2,1.2 0 0 1 1.19992,-1.19993 1.2,1.2 0 0 1 1.19993,1.19993 1.2,1.2 0 0 1 -1.19993,1.19993 z"
     id="path882-5-7-2-5-3-3"
     inkscape:connector-curvature="0" />
  <path
     style="opacity:1;vector-effect:none;fill:none;fill-opacity:1;fill-rule:nonzero;stroke:#ff0000;stroke-width:0.1;stroke-linecap:butt;stroke-linejoin:miter;stroke-miterlimit:4;stroke-dasharray:none;stroke-dashoffset:0;stroke-opacity:1;paint-order:markers fill stroke"
     d="m 233.36881,224.73266 a 2.38131,2.38131 0 0 0 2.38125,-2.38125 l -0.0501,-17.00052 c -0.003,-1.10799 -0.89187,-1.99956 -1.99987,-1.99988 l -214.649419,-0.0501 c -1.31516,1.1e-4 -2.38125,1.06609 -2.38125,2.38125 0,1.31516 1.0661,2.38125 2.38125,2.38125 H 230.98707 v 14.28801 a 2.38131,2.38131 0 0 0 2.38177,2.38125 z m 0,-17.8506 a 1.2,1.2 0 0 1 -1.20044,-1.19991 1.2,1.2 0 0 1 1.20044,-1.19994 1.2,1.2 0 0 1 1.19993,1.19994 1.2,1.2 0 0 1 -1.19993,1.19991 z m -69.05831,0 a 1.2,1.2 0 0 1 -1.19993,-1.19991 1.2,1.2 0 0 1 1.19993,-1.19994 1.2,1.2 0 0 1 1.19992,1.19994 1.2,1.2 0 0 1 -1.19992,1.19991 z m -76.202062,0 a 1.2,1.2 0 0 1 -1.19993,-1.19991 1.2,1.2 0 0 1 1.19993,-1.19994 1.2,1.2 0 0 1 1.200438,1.19994 1.2,1.2 0 0 1 -1.200438,1.19991 z m -69.057797,0 a 1.2,1.2 0 0 1 -1.19993,-1.19991 1.2,1.2 0 0 1 1.19993,-1.19994 1.2,1.2 0 0 1 1.19993,1.19994 1.2,1.2 0 0 1 -1.19993,1.19991 z"
     id="path882-5-2-91-5-6-7"
     inkscape:connector-curvature="0" />
  <path
     style="opacity:1;vector-effect:none;fill:none;fill-opacity:1;fill-rule:nonzero;stroke:#ff0000;stroke-width:0.1;stroke-linecap:butt;stroke-linejoin:miter;stroke-miterlimit:4;stroke-dasharray:none;stroke-dashoffset:0;stroke-opacity:1;paint-order:markers fill stroke"
     d="m 256.986,410.75609 c 0,1.108 0.89187,1.99666 1.99987,1.99988 l 17.19585,0.0501 a 2.3813086,2.38131 0 0 0 2.06241,-1.19062 2.3813086,2.38131 0 0 0 0,-2.38177 2.3813086,2.38131 0 0 0 -2.06241,-1.19062 l -14.28698,-0.0351 -0.001,-209.52003 h 14.28801 c 0.85076,0 1.63703,-0.45384 2.06241,-1.19062 0.42538,-0.73678 0.42538,-1.64447 0,-2.38125 -0.42538,-0.73678 -1.21167,-1.19063 -2.06241,-1.19063 H 258.9859 c -1.108,0 -1.99987,0.85054 -1.99987,1.95854 z m 1.32653,-0.33124 a 1.2,1.2 0 0 1 1.19993,-1.20044 1.2,1.2 0 0 1 1.19993,1.20044 1.2,1.2 0 0 1 -1.19993,1.19993 1.2,1.2 0 0 1 -1.19993,-1.19993 z m 0,-69.05832 a 1.2,1.2 0 0 1 1.19993,-1.19993 1.2,1.2 0 0 1 1.19993,1.19993 1.2,1.2 0 0 1 -1.19993,1.19992 1.2,1.2 0 0 1 -1.19993,-1.19992 z m 0,-76.20206 a 1.2,1.2 0 0 1 1.19993,-1.19992 1.2,1.2 0 0 1 1.19993,1.19992 1.2,1.2 0 0 1 -1.19993,1.20045 1.2,1.2 0 0 1 -1.19993,-1.20045 z m 0,-69.0578 a 1.2,1.2 0 0 1 1.19993,-1.19992 1.2,1.2 0 0 1 1.19993,1.19992 1.2,1.2 0 0 1 -1.19993,1.19993 1.2,1.2 0 0 1 -1.19993,-1.19993 z"
     id="path882-5-7-2-5-3-3-3"
     inkscape:connector-curvature="0" />
  <path
     style="opacity:1;vector-effect:none;fill:none;fill-opacity:1;fill-rule:nonzero;stroke:#ff0000;stroke-width:0.1;stroke-linecap:butt;stroke-linejoin:miter;stroke-miterlimit:4;stroke-dasharray:none;stroke-dashoffset:0;stroke-opacity:1;paint-order:markers fill stroke"
     d="m 266.53427,401.02244 a 2.38131,2.38131 0 0 0 2.38125,2.38125 l 17.00052,-0.0501 c 1.10799,-0.003 1.99956,-0.89187 1.99988,-1.99987 l 0.0501,-214.64942 c -1.1e-4,-1.31516 -1.06609,-2.38125 -2.38125,-2.38125 -1.31516,0 -2.38125,1.0661 -2.38125,2.38125 v 211.9364 h -14.28801 a 2.38131,2.38131 0 0 0 -2.38125,2.38177 z m 17.8506,0 a 1.2,1.2 0 0 1 1.19991,-1.20044 1.2,1.2 0 0 1 1.19994,1.20044 1.2,1.2 0 0 1 -1.19994,1.19993 1.2,1.2 0 0 1 -1.19991,-1.19993 z m 0,-69.05831 a 1.2,1.2 0 0 1 1.19991,-1.19993 1.2,1.2 0 0 1 1.19994,1.19993 1.2,1.2 0 0 1 -1.19994,1.19992 1.2,1.2 0 0 1 -1.19991,-1.19992 z m 0,-76.20206 a 1.2,1.2 0 0 1 1.19991,-1.19993 1.2,1.2 0 0 1 1.19994,1.19993 1.2,1.2 0 0 1 -1.19994,1.20044 1.2,1.2 0 0 1 -1.19991,-1.20044 z m 0,-69.0578 a 1.2,1.2 0 0 1 1.19991,-1.19993 1.2,1.2 0 0 1 1.19994,1.19993 1.2,1.2 0 0 1 -1.19994,1.19993 1.2,1.2 0 0 1 -1.19991,-1.19993 z"
     id="path882-5-2-91-5-6-7-2"
     inkscape:connector-curvature="0" />
  <path
     style="fill:none;fill-opacity:1;stroke:#ff0000;stroke-width:0.1;stroke-linecap:butt;stroke-linejoin:round;stroke-miterlimit:4;stroke-dasharray:none;stroke-opacity:1;paint-order:markers stroke fill"
     d="m 189.17343,179.43817 c -0.33307,0 -0.66623,-2e-5 -0.83302,0.16691 -0.16681,0.16693 -0.16692,0.49996 -0.16692,0.83303 v 17.05012 c 0,0.3336 1.1e-4,0.66687 0.16692,0.83354 0.16679,0.16667 0.49995,0.1664 0.83302,0.1664 h 18.21801 c 18.21807,0 18.55169,0 18.71824,-0.1664 0.16653,-0.16641 0.1664,-0.49994 0.1664,-0.83354 v -17.05012 c 0,-0.33307 1.3e-4,-0.66636 -0.1664,-0.83303 -0.16655,-0.16666 -0.49996,-0.16691 -0.83354,-0.16691 z m 1.54047,1.39164 a 1.15,1.15 0 0 1 1.1498,1.1498 1.15,1.15 0 0 1 -1.1498,1.15032 1.15,1.15 0 0 1 -1.1498,-1.15032 1.15,1.15 0 0 1 1.1498,-1.1498 z m 0,13.96969 a 1.15,1.15 0 0 1 1.1498,1.15032 1.15,1.15 0 0 1 -1.1498,1.1498 1.15,1.15 0 0 1 -1.1498,-1.1498 1.15,1.15 0 0 1 1.1498,-1.15032 z"
     id="path60932-7-3-6-2-9-7-7-4"
     inkscape:connector-curvature="0" />
</svg>
